<svg width="169" height="169" viewBox="0 0 169 169" fill="none" xmlns="http://www.w3.org/2000/svg">
<path d="M0 20.0132C0 8.9602 8.9602 0 20.0132 0H148.987C160.04 0 169 8.9602 169 20.0132V148.987C169 160.04 160.04 169 148.987 169H20.0132C8.9602 169 0 160.04 0 148.987V20.0132Z" fill="white"/>
<path d="M34.9615 169C34.9615 156.719 44.9173 146.763 57.1984 146.763H110.443C122.724 146.763 132.68 156.719 132.68 169H34.9615Z" fill="#3423E9"/>
<path d="M35.5791 84.1387C35.5791 75.1898 42.8336 67.9353 51.7825 67.9353H115.233C124.182 67.9353 131.436 75.1898 131.436 84.1387C131.436 93.0876 124.182 100.342 115.233 100.342H51.7825C42.8336 100.342 35.5791 93.0876 35.5791 84.1387Z" fill="#3423E9"/>
<circle cx="83.5" cy="68" r="32" fill="#3423E9"/>
<path d="M58.4882 112.137C51.8672 112.137 46.4998 106.769 46.4998 100.148C46.4998 93.5269 51.8672 88.1591 58.4882 88.1591C65.1093 88.1591 70.4767 93.5269 70.4767 100.148C70.4767 106.769 65.1093 112.137 58.4882 112.137Z" fill="#FFD214"/>
<path d="M107.832 112.137C101.211 112.137 95.8438 106.769 95.8438 100.148C95.8438 93.5269 101.211 88.1591 107.832 88.1591C114.453 88.1591 119.821 93.5269 119.821 100.148C119.821 106.769 114.453 112.137 107.832 112.137Z" fill="#FFD214"/>
<path fill-rule="evenodd" clip-rule="evenodd" d="M107.841 68.0985C107.841 68.0889 107.841 68.0793 107.841 68.0696C107.841 54.5934 96.9155 43.6687 83.4392 43.6687C69.963 43.6687 59.0377 54.5934 59.0377 68.0696C59.0377 68.0793 59.0377 68.0889 59.0377 68.0985H107.841Z" fill="white"/>
<rect x="79.5" y="40" width="8" height="40" fill="#3423E9"/>
</svg>
