<svg width="169" height="169" viewBox="0 0 169 169" fill="none" xmlns="http://www.w3.org/2000/svg">
<path d="M0 20.0132C0 8.9602 8.9602 0 20.0132 0H148.987C160.04 0 169 8.9602 169 20.0132V148.987C169 160.04 160.04 169 148.987 169H20.0132C8.9602 169 0 160.04 0 148.987V20.0132Z" fill="white"/>
<path d="M34.9614 169C34.9614 156.719 44.9172 146.763 57.1983 146.763H110.443C122.724 146.763 132.68 156.719 132.68 169V169H34.9614V169Z" fill="#4ACDFF"/>
<path d="M85.9824 49.4161C85.9824 47.0959 87.8633 45.215 90.1835 45.215H96.7714C99.0916 45.215 100.972 47.0959 100.972 49.4161V49.4161C100.972 51.7363 99.0916 53.6172 96.7714 53.6172H90.1835C87.8633 53.6172 85.9824 51.7363 85.9824 49.4161V49.4161Z" fill="#4ACDFF"/>
<rect x="83" y="42.5308" width="3" height="20" fill="#D47B2D"/>
<path d="M108.579 80.2436C108.579 93.6474 97.7129 104.513 84.3092 104.513C70.9054 104.513 60.0396 93.6474 60.0396 80.2436C60.0396 66.8399 70.9054 55.974 84.3092 55.974C97.7129 55.974 108.579 66.8399 108.579 80.2436Z" fill="#FF3E91"/>
</svg>
