<svg width="169" height="169" viewBox="0 0 169 169" fill="none" xmlns="http://www.w3.org/2000/svg">
<path d="M0 20.0132C0 8.9602 8.9602 0 20.0132 0H148.987C160.04 0 169 8.9602 169 20.0132V148.987C169 160.04 160.04 169 148.987 169H20.0132C8.9602 169 0 160.04 0 148.987V20.0132Z" fill="white"/>
<path d="M34.9615 169C34.9615 156.719 44.9173 146.763 57.1984 146.763H110.443C122.724 146.763 132.68 156.719 132.68 169V169H34.9615V169Z" fill="#FF3E91"/>
<rect x="81" y="45" width="6" height="47" fill="#D47B2D"/>
<path d="M84 34L120 64H48L84 34Z" fill="#3423E9"/>
<path fill-rule="evenodd" clip-rule="evenodd" d="M93.9999 99C97.8659 99 101 95.866 101 92C101 92 101 92 101 92H106.318C106.285 98.9633 100.63 104.598 93.6592 104.598C86.6882 104.598 81.0332 98.9633 81 92H86.9999C86.9999 92 86.9999 92 86.9999 92C86.9999 95.866 90.1339 99 93.9999 99Z" fill="#D47B2D"/>
</svg>
