<svg width="169" height="169" viewBox="0 0 169 169" fill="none" xmlns="http://www.w3.org/2000/svg">
<path d="M0 20.0132C0 8.9602 8.9602 0 20.0132 0H148.987C160.04 0 169 8.9602 169 20.0132V148.987C169 160.04 160.04 169 148.987 169H20.0132C8.9602 169 0 160.04 0 148.987V20.0132Z" fill="white"/>
<path d="M34.9615 169C34.9615 156.719 44.9173 146.763 57.1984 146.763H110.443C122.724 146.763 132.68 156.719 132.68 169V169H34.9615V169Z" fill="#3423E9"/>
<rect width="60.5287" height="25.3942" rx="12.6971" transform="matrix(-1 0 0 1 114.98 66.7106)" fill="#FF3E91"/>
<path d="M54.4855 79.4077L32.6141 66.7106V92.1048L54.4855 79.4077Z" fill="#FF3E91"/>
<path d="M114.981 79.4077L136.852 92.1048V66.7106L114.981 79.4077Z" fill="#FF3E91"/>
</svg>
