<svg width="169" height="169" viewBox="0 0 169 169" fill="none" xmlns="http://www.w3.org/2000/svg">
<path d="M0 20.0132C0 8.9602 8.9602 0 20.0132 0H148.987C160.04 0 169 8.9602 169 20.0132V148.987C169 160.04 160.04 169 148.987 169H20.0132C8.9602 169 0 160.04 0 148.987V20.0132Z" fill="white"/>
<path d="M34.9614 169C34.9614 156.719 44.9172 146.763 57.1983 146.763H110.443C122.724 146.763 132.68 156.719 132.68 169V169H34.9614V169Z" fill="#3423E9"/>
<rect x="64.5" y="39.9692" width="39" height="54" stroke="black" stroke-width="3"/>
<path d="M77 27.4692L105 38.2558V95.6826L77 106.469V27.4692Z" fill="#FF3E91"/>
<circle cx="82.5" cy="66.9692" r="2.5" fill="white"/>
</svg>
