<svg width="169" height="169" viewBox="0 0 169 169" fill="none" xmlns="http://www.w3.org/2000/svg">
<path d="M0 20.0132C0 8.9602 8.9602 0 20.0132 0H148.987C160.04 0 169 8.9602 169 20.0132V148.987C169 160.04 160.04 169 148.987 169H20.0132C8.9602 169 0 160.04 0 148.987V20.0132Z" fill="white"/>
<path d="M34.9614 169C34.9614 156.719 44.9172 146.763 57.1983 146.763H110.443C122.724 146.763 132.68 156.719 132.68 169V169H34.9614V169Z" fill="#D47B2D"/>
<path d="M62 69.592H106L100.363 105.592H67.6372L62 69.592Z" fill="#4ACDFF"/>
<path d="M68.7637 106.592L59.1667 44.592H109.833L100.236 106.592H68.7637Z" stroke="black" stroke-width="2"/>
</svg>
