<svg width="169" height="169" viewBox="0 0 169 169" fill="none" xmlns="http://www.w3.org/2000/svg">
<path d="M0 20.0132C0 8.9602 8.9602 0 20.0132 0H148.987C160.04 0 169 8.9602 169 20.0132V148.987C169 160.04 160.04 169 148.987 169H20.0132C8.9602 169 0 160.04 0 148.987V20.0132Z" fill="white"/>
<path d="M34.9615 169C34.9615 156.719 44.9173 146.763 57.1984 146.763H110.443C122.724 146.763 132.68 156.719 132.68 169V169H34.9615V169Z" fill="#FF3E91"/>
<path fill-rule="evenodd" clip-rule="evenodd" d="M47.5979 102.857C40.5508 102.857 34.8379 97.1443 34.8379 90.0971V70.5757C34.8379 63.5285 40.5508 57.8157 47.5979 57.8157C54.6451 57.8157 60.358 63.5285 60.358 70.5757V90.0971C60.358 97.1443 54.6451 102.857 47.5979 102.857ZM49.7003 79.0979C51.544 78.2631 52.8267 76.4071 52.8267 74.2515C52.8267 71.3148 50.4461 68.9341 47.5094 68.9341C44.5727 68.9341 42.192 71.3148 42.192 74.2515C42.192 76.407 43.4746 78.263 45.3183 79.0979L41.5089 90.6062H53.5097L49.7003 79.0979Z" fill="#D47B2D"/>
<rect x="112.118" y="71.6728" width="4.83396" height="43.1833" transform="rotate(90 112.118 71.6728)" fill="#FFD214"/>
<rect x="73.7683" y="71.6728" width="5.15622" height="18.6913" fill="#FFD214"/>
<rect x="85.3693" y="71.6728" width="5.15622" height="18.6913" fill="#FFD214"/>
<mask id="path-7-inside-1_706_36" fill="white">
<path d="M108.419 74.166C108.419 65.136 115.74 57.8157 124.77 57.8157V57.8157C133.8 57.8157 141.121 65.136 141.121 74.166V74.166C141.121 83.1961 133.8 90.5164 124.77 90.5164V90.5164C115.74 90.5164 108.419 83.1961 108.419 74.166V74.166Z"/>
</mask>
<path d="M124.77 83.5164C119.606 83.5164 115.419 79.3298 115.419 74.166H101.419C101.419 87.0624 111.874 97.5164 124.77 97.5164V83.5164ZM134.121 74.166C134.121 79.3298 129.935 83.5164 124.77 83.5164V97.5164C137.666 97.5164 148.121 87.0624 148.121 74.166H134.121ZM124.77 64.8157C129.935 64.8157 134.121 69.0023 134.121 74.166H148.121C148.121 61.2697 137.666 50.8157 124.77 50.8157V64.8157ZM124.77 50.8157C111.874 50.8157 101.419 61.2697 101.419 74.166H115.419C115.419 69.0023 119.606 64.8157 124.77 64.8157V50.8157Z" fill="#FFD214" mask="url(#path-7-inside-1_706_36)"/>
</svg>
