<svg width="169" height="169" viewBox="0 0 169 169" fill="none" xmlns="http://www.w3.org/2000/svg">
<path d="M0 20.0132C0 8.9602 8.9602 0 20.0132 0H148.987C160.04 0 169 8.9602 169 20.0132V148.987C169 160.04 160.04 169 148.987 169H20.0132C8.9602 169 0 160.04 0 148.987V20.0132Z" fill="white"/>
<path d="M34.9617 169C34.9617 156.719 44.9174 146.763 57.1985 146.763H110.443C122.724 146.763 132.68 156.719 132.68 169V169H34.9617V169Z" fill="#4ACDFF"/>
<circle cx="55" cy="53.4082" r="13" fill="#D47B2D"/>
<ellipse cx="113" cy="53.4082" rx="14" ry="13" fill="#D47B2D"/>
<ellipse cx="54.5" cy="53.4082" rx="7.5" ry="7" fill="white"/>
<ellipse cx="112.5" cy="53.4082" rx="7.5" ry="7" fill="white"/>
<ellipse cx="84" cy="76.9082" rx="43" ry="27.5" fill="#D47B2D"/>
<ellipse cx="84" cy="84.9082" rx="21" ry="12.5" fill="white"/>
<circle cx="67.5" cy="65.9082" r="4.5" fill="black"/>
<circle cx="100.5" cy="65.9082" r="4.5" fill="black"/>
<path d="M83.5 86.4082L76 78.4082H91L83.5 86.4082Z" fill="black"/>
</svg>
