<svg width="169" height="169" viewBox="0 0 169 169" fill="none" xmlns="http://www.w3.org/2000/svg">
<path d="M0 20.0132C0 8.9602 8.9602 0 20.0132 0H148.987C160.04 0 169 8.9602 169 20.0132V148.987C169 160.04 160.04 169 148.987 169H20.0132C8.9602 169 0 160.04 0 148.987V20.0132Z" fill="white"/>
<path d="M34.9614 169C34.9614 156.719 44.9172 146.763 57.1983 146.763H110.443C122.724 146.763 132.68 156.719 132.68 169V169H34.9614V169Z" fill="#FFD214"/>
<circle r="6.52476" transform="matrix(-0.707107 -0.707107 -0.707107 0.707107 60.1237 75.6354)" stroke="black" stroke-width="5"/>
<rect width="4.96362" height="18.2816" transform="matrix(-0.258819 -0.965926 -0.965926 0.258819 82.7462 71.7988)" fill="black"/>
<path d="M104.762 42.7628V42.7628C106.701 44.7012 106.701 47.844 104.762 49.7824L82.7463 71.7984L79.2364 68.2886L104.762 42.7628Z" fill="black"/>
<circle cx="86.7242" cy="90.9923" r="6.52476" transform="rotate(15 86.7242 90.9923)" stroke="#FFD214" stroke-width="5"/>
<rect x="78.7356" y="69.482" width="4.96362" height="18.2816" transform="rotate(-15 78.7356 69.482)" fill="#FFD214"/>
<path d="M92.8729 35.8973V35.8973C90.225 35.1878 87.5033 36.7592 86.7938 39.4071L78.7353 69.4816L83.5298 70.7663L92.8729 35.8973Z" fill="#FFD214"/>
</svg>
