<svg width="169" height="169" viewBox="0 0 169 169" fill="none" xmlns="http://www.w3.org/2000/svg">
<path d="M0 20.0132C0 8.9602 8.9602 0 20.0132 0H148.987C160.04 0 169 8.9602 169 20.0132V148.987C169 160.04 160.04 169 148.987 169H20.0132C8.9602 169 0 160.04 0 148.987V20.0132Z" fill="white"/>
<path d="M34.9615 169C34.9615 156.719 44.9173 146.763 57.1984 146.763H110.443C122.724 146.763 132.68 156.719 132.68 169V169H34.9615V169Z" fill="#FFD214"/>
<path d="M67.0051 72.363C67.0051 67.0544 71.3086 62.751 76.6171 62.751H124.028C129.337 62.751 133.64 67.0544 133.64 72.363V72.363C133.64 77.6716 129.337 81.975 124.028 81.975H76.6171C71.3086 81.975 67.0051 77.6716 67.0051 72.363V72.363Z" fill="#4ACDFF"/>
<path d="M35.5791 98.544C35.5791 95.2204 38.2734 92.5261 41.5969 92.5261H71.2798C74.6034 92.5261 77.2977 95.2204 77.2977 98.544V98.544C77.2977 101.868 74.6034 104.562 71.2798 104.562H41.597C38.2734 104.562 35.5791 101.868 35.5791 98.544V98.544Z" fill="#4ACDFF"/>
<ellipse cx="100.5" cy="58.908" rx="16.5" ry="17.5" fill="#4ACDFF"/>
<ellipse cx="56.5" cy="90.408" rx="10.5" ry="11" fill="#4ACDFF"/>
</svg>
