<svg width="169" height="169" viewBox="0 0 169 169" fill="none" xmlns="http://www.w3.org/2000/svg">
<path d="M0 20.0132C0 8.9602 8.9602 0 20.0132 0H148.987C160.04 0 169 8.9602 169 20.0132V148.987C169 160.04 160.04 169 148.987 169H20.0132C8.9602 169 0 160.04 0 148.987V20.0132Z" fill="white"/>
<path d="M34.9615 169C34.9615 156.719 44.9173 146.763 57.1984 146.763H110.443C122.724 146.763 132.68 156.719 132.68 169V169H34.9615V169Z" fill="#4ACDFF"/>
<path d="M60.5 30.5306L68.8759 47.7999L87.6051 50.5691L74.0526 64.0114L77.2519 82.9921L60.5 74.0306L43.7481 82.9921L46.9474 64.0114L33.3949 50.5691L52.1241 47.7999L60.5 30.5306Z" fill="#FFD214"/>
<path d="M92 73.5306L96.7023 82.7608L107.217 84.2409L99.6085 91.4255L101.405 101.57L92 96.7806L82.5954 101.57L84.3915 91.4255L76.7831 84.2409L87.2977 82.7608L92 73.5306Z" fill="#FFD214"/>
<path d="M111 38.5306L116.878 50.4405L130.021 52.3503L120.511 61.6208L122.756 74.711L111 68.5306L99.2443 74.711L101.489 61.6208L91.9789 52.3503L105.122 50.4405L111 38.5306Z" fill="#FFD214"/>
</svg>
