<svg width="169" height="169" viewBox="0 0 169 169" fill="none" xmlns="http://www.w3.org/2000/svg">
<path d="M0 20.0132C0 8.9602 8.9602 0 20.0132 0H148.987C160.04 0 169 8.9602 169 20.0132V148.987C169 160.04 160.04 169 148.987 169H20.0132C8.9602 169 0 160.04 0 148.987V20.0132Z" fill="white"/>
<path d="M34.9615 169C34.9615 156.719 44.9173 146.763 57.1984 146.763H110.443C122.724 146.763 132.68 156.719 132.68 169V169H34.9615V169Z" fill="#4ACDFF"/>
<path d="M57.8432 98.184L62.7471 79.883L76.1443 93.2804L57.8432 98.184Z" fill="#D47B2D"/>
<path d="M57.8073 98.148L59.6077 91.4133L64.542 96.3477L57.8073 98.148Z" fill="black"/>
<rect x="76.1443" y="93.2804" width="18.8601" height="48.5004" transform="rotate(-134.999 76.1443 93.2804)" fill="#FFD214"/>
<path d="M110.819 58.6069L97.4827 45.2707L101.415 41.3381C103.368 39.3855 106.534 39.3855 108.486 41.3382L114.751 47.6032C116.704 49.5559 116.704 52.7217 114.751 54.6743L110.819 58.6069Z" fill="#FF3E91"/>
<path d="M109.075 60.3503L95.7388 47.0141L98.8507 43.9023L112.187 57.2385L109.075 60.3503Z" fill="#C4C4C4"/>
</svg>
