<svg width="169" height="169" viewBox="0 0 169 169" fill="none" xmlns="http://www.w3.org/2000/svg">
<path d="M0 20.0132C0 8.9602 8.9602 0 20.0132 0H148.987C160.04 0 169 8.9602 169 20.0132V148.987C169 160.04 160.04 169 148.987 169H20.0132C8.9602 169 0 160.04 0 148.987V20.0132Z" fill="white"/>
<path d="M34.9617 169C34.9617 156.719 44.9174 146.763 57.1985 146.763H110.443C122.724 146.763 132.68 156.719 132.68 169V169H34.9617V169Z" fill="#3423E9"/>
<path fill-rule="evenodd" clip-rule="evenodd" d="M83.7587 44.4736C116.918 44.4736 143.798 71.3542 143.798 104.513L129.789 104.513C129.789 104.513 129.789 104.513 129.789 104.513C129.789 79.091 109.181 58.4825 83.759 58.4825C58.3372 58.4825 37.7287 79.091 37.7287 104.513C37.7287 104.513 37.7287 104.513 37.7287 104.513L23.7192 104.513C23.7192 71.3542 50.5998 44.4736 83.7587 44.4736Z" fill="#FFD214"/>
<path fill-rule="evenodd" clip-rule="evenodd" d="M129.789 104.515V104.515H115.78C115.78 104.515 115.78 104.514 115.78 104.514C115.78 86.8291 101.443 72.4928 83.7586 72.4928C66.0738 72.4928 51.7375 86.8291 51.7375 104.514C51.7375 104.514 51.7375 104.515 51.7375 104.515H37.728V104.515C37.728 79.0931 58.3365 58.4846 83.7583 58.4846C109.18 58.4846 129.789 79.0931 129.789 104.515Z" fill="#FF3E91"/>
<path fill-rule="evenodd" clip-rule="evenodd" d="M83.7593 136.533C83.6948 136.533 83.6303 136.533 83.5659 136.533H83.9528C83.8884 136.533 83.8239 136.533 83.7593 136.533ZM101.771 104.512H115.78C115.78 86.8272 101.444 72.4912 83.7593 72.4912C66.0748 72.4912 51.7386 86.8272 51.7383 104.512H65.7471C65.748 94.5648 73.8118 86.5016 83.7589 86.5016C93.706 86.5016 101.77 94.5648 101.771 104.512Z" fill="#4ACDFF"/>
</svg>
