<svg width="169" height="169" viewBox="0 0 169 169" fill="none" xmlns="http://www.w3.org/2000/svg">
<path d="M0 20.0132C0 8.9602 8.9602 0 20.0132 0H148.987C160.04 0 169 8.9602 169 20.0132V148.987C169 160.04 160.04 169 148.987 169H20.0132C8.9602 169 0 160.04 0 148.987V20.0132Z" fill="white"/>
<path d="M34.9615 169C34.9615 156.719 44.9173 146.763 57.1984 146.763H110.443C122.724 146.763 132.68 156.719 132.68 169V169H34.9615V169Z" fill="#4ACDFF"/>
<path fill-rule="evenodd" clip-rule="evenodd" d="M104.164 66.8692C104.164 66.861 104.164 66.8528 104.164 66.8446C104.164 55.4618 94.9359 46.2341 83.553 46.2341C72.1702 46.2341 62.942 55.4618 62.942 66.8446C62.942 66.8528 62.942 66.861 62.942 66.8692H104.164Z" fill="white"/>
<circle cx="84.1761" cy="52.5002" r="12.4738" fill="#FF3E91"/>
<circle cx="84.1759" cy="92.0395" r="12.4738" transform="rotate(-180 84.1759 92.0395)" fill="#FF3E91"/>
<circle cx="84.1761" cy="72.2697" r="12.4738" fill="#FFD214"/>
<circle cx="101.298" cy="62.3862" r="12.4738" transform="rotate(60 101.298 62.3862)" fill="#FF3E91"/>
<circle cx="67.0553" cy="82.1567" r="12.4738" transform="rotate(-120 67.0553 82.1567)" fill="#FF3E91"/>
<circle cx="84.1765" cy="72.2715" r="12.4738" transform="rotate(60 84.1765 72.2715)" fill="#FFD214"/>
<circle cx="101.297" cy="82.1562" r="12.4738" transform="rotate(120 101.297 82.1562)" fill="#FF3E91"/>
<circle cx="67.0549" cy="62.3861" r="12.4738" transform="rotate(-60 67.0549 62.3861)" fill="#FF3E91"/>
<circle cx="84.1759" cy="72.2723" r="12.4738" transform="rotate(120 84.1759 72.2723)" fill="#FFD214"/>
</svg>
