<svg width="169" height="169" viewBox="0 0 169 169" fill="none" xmlns="http://www.w3.org/2000/svg">
<path d="M0 20.0132C0 8.9602 8.9602 0 20.0132 0H148.987C160.04 0 169 8.9602 169 20.0132V148.987C169 160.04 160.04 169 148.987 169H20.0132C8.9602 169 0 160.04 0 148.987V20.0132Z" fill="white"/>
<path d="M34.9614 169C34.9614 156.719 44.9172 146.763 57.1983 146.763H110.443C122.724 146.763 132.68 156.719 132.68 169V169H34.9614V169Z" fill="#D47B2D"/>
<mask id="mask0_706_225" style="mask-type:alpha" maskUnits="userSpaceOnUse" x="68" y="52" width="33" height="34">
<circle r="16.307" transform="matrix(-1 0 0 1 84.5001 68.934)" fill="#C4C4C4"/>
</mask>
<g mask="url(#mask0_706_225)">
<path d="M78.3285 61.5392L89.7152 34.0493L97.7754 42.0973L105.836 50.1454L78.3285 61.5392Z" fill="#D47B2D"/>
<path d="M78.3285 61.5392L50.8386 50.1525L58.8867 42.0923L66.9347 34.0322L78.3285 61.5392Z" fill="#D47B2D"/>
<path d="M78.3285 61.5392L66.9418 89.0291L58.8817 80.981L50.8215 72.9329L78.3285 61.5392Z" fill="#D47B2D"/>
<path d="M78.3285 61.5392L105.818 72.9259L97.7703 80.986L89.7223 89.0462L78.3285 61.5392Z" fill="#D47B2D"/>
<path d="M78.3287 61.5393L66.942 34.0495L78.3322 34.0409L89.7225 34.0323L78.3287 61.5393Z" fill="#FFD214"/>
<path d="M78.3287 61.5393L50.8388 72.926L50.8302 61.5358L50.8217 50.1456L78.3287 61.5393Z" fill="#FFD214"/>
<path d="M78.3287 61.5393L89.7154 89.0292L78.3251 89.0378L66.9349 89.0463L78.3287 61.5393Z" fill="#FFD214"/>
<path d="M78.3287 61.5393L105.819 50.1527L105.827 61.5429L105.836 72.9331L78.3287 61.5393Z" fill="#FFD214"/>
</g>
</svg>
