<svg width="169" height="169" viewBox="0 0 169 169" fill="none" xmlns="http://www.w3.org/2000/svg">
<rect width="169" height="169" rx="20" fill="white"/>
<path d="M34.9617 169C34.9617 156.719 44.9174 146.763 57.1985 146.763H110.443C122.724 146.763 132.68 156.719 132.68 169V169H34.9617V169Z" fill="#FF3E91"/>
<path fill-rule="evenodd" clip-rule="evenodd" d="M85.6551 60.1977C84.5121 60.395 83.2824 60.6778 82.2628 61.0202C81.8388 61.1626 81.4734 61.3079 81.1765 61.4509C81.9694 61.8579 83.3935 62.3647 85.7478 62.9188C88.6326 63.5978 90.6171 64.3137 91.79 65.1271C92.3761 65.5336 92.973 66.1096 93.203 66.9218C93.4614 67.8342 93.1509 68.6346 92.7253 69.188C92.3313 69.7002 91.7892 70.0826 91.2856 70.3695C90.7618 70.6678 90.1643 70.9268 89.5542 71.1504C88.3332 71.598 86.9344 71.9498 85.6879 72.1923L85.6716 72.1955L85.6551 72.1984C84.5133 72.3954 83.2854 72.6795 82.2678 73.0251C81.8102 73.1805 81.4212 73.3395 81.1135 73.4955C81.8883 73.9218 83.3269 74.4616 85.7615 75.0576C88.6424 75.7627 90.61 76.475 91.7686 77.2507C92.3361 77.6306 92.9517 78.1835 93.1948 78.9857C93.4797 79.9261 93.1288 80.7394 92.6773 81.2715C92.2666 81.7556 91.7116 82.1006 91.2119 82.3512C90.6878 82.614 90.0911 82.8377 89.4829 83.0282C88.2652 83.4096 86.8699 83.6979 85.6267 83.889L85.6265 83.8882C84.5047 84.067 83.3091 84.3343 82.312 84.6623C81.8689 84.808 81.4882 84.9582 81.1816 85.1065C81.9682 85.5127 83.3885 86.0188 85.7445 86.5679C88.6285 87.2401 90.6118 87.9487 91.7841 88.7537C92.3686 89.1551 92.9696 89.7273 93.2019 90.5394C93.4638 91.4554 93.1479 92.2572 92.7206 92.8073C92.3254 93.3161 91.7827 93.6949 91.2798 93.9785C90.7563 94.2738 90.1592 94.5301 89.5495 94.7514C88.3293 95.1943 86.9311 95.5426 85.6851 95.7826L85.6689 95.7858L85.6526 95.7886C84.5109 95.9837 83.2825 96.2657 82.2644 96.6088C81.821 96.7583 81.4419 96.9112 81.1386 97.0614C81.9209 97.4805 83.3541 98.0077 85.7566 98.5878C88.6371 99.2832 90.6038 99.9867 91.7621 100.754C92.3282 101.129 92.9481 101.678 93.1935 102.48C93.23 102.6 93.2562 102.717 93.2732 102.832H88.8355C87.9873 102.493 86.7546 102.106 85.0194 101.687C82.1366 100.991 80.1611 100.274 78.9959 99.4792C78.4195 99.0859 77.8135 98.5216 77.5771 97.7148C77.3057 96.7888 77.6357 95.9821 78.0752 95.4391C78.4783 94.9412 79.0277 94.5785 79.5298 94.3112C80.0541 94.032 80.6515 93.7922 81.2609 93.5868C82.4752 93.1776 83.8656 92.8625 85.1067 92.6497C86.2434 92.43 87.4643 92.1211 88.4772 91.7535C88.9758 91.5725 89.3935 91.3882 89.7141 91.2095C88.9568 90.7868 87.515 90.2513 85.0315 89.6725C82.1492 89.0007 80.1722 88.2997 79.0074 87.5123C78.4317 87.1232 77.819 86.5573 77.5869 85.7405C77.321 84.8048 77.6702 83.9996 78.1118 83.4671C78.5196 82.9753 79.0721 82.6165 79.5795 82.351C80.1092 82.0739 80.7127 81.8361 81.3301 81.633C82.5658 81.2266 83.9833 80.9184 85.2567 80.7212L85.2569 80.7222C86.3699 80.5468 87.5556 80.2948 88.5438 79.9853C88.9212 79.8671 89.252 79.746 89.5291 79.6256C88.7188 79.2192 87.3045 78.7146 85.0146 78.1541C82.1312 77.4483 80.1549 76.7228 78.9895 75.9192C78.4118 75.5209 77.8101 74.9528 77.5759 74.1464C77.3082 73.2239 77.6326 72.4187 78.0711 71.8723C78.4734 71.3712 79.0225 71.0056 79.5252 70.7358C80.05 70.4542 80.6478 70.2124 81.2575 70.0054C82.4722 69.5929 83.863 69.2754 85.104 69.0605C86.2401 68.8387 87.4604 68.5269 88.4726 68.1559C88.9814 67.9694 89.4059 67.7794 89.7287 67.5955L89.7382 67.5901C88.99 67.1611 87.5441 66.614 85.0282 66.0218C82.1464 65.3436 80.172 64.6429 79.0069 63.8621C78.4322 63.4771 77.819 62.9186 77.5789 62.1109C77.3018 61.1792 77.6406 60.3705 78.0807 59.8329C78.4845 59.3396 79.0336 58.9807 79.5341 58.7162C80.0575 58.4396 80.6539 58.2015 81.2625 57.9971C82.4808 57.5881 83.8768 57.2716 85.1209 57.0569L85.6551 60.1977Z" fill="#FFD214"/>
<path fill-rule="evenodd" clip-rule="evenodd" d="M59.3037 84.919C59.3089 96.1508 68.4157 105.254 79.6487 105.254H89.6363C100.869 105.254 109.976 96.1508 109.981 84.919H59.3037Z" fill="#3423E9"/>
<rect x="83.9243" y="59.5664" width="3.52787" height="35.02" transform="rotate(-119.432 83.9243 59.5664)" fill="#D47B2D"/>
<rect x="84.5747" y="61.6333" width="3.52787" height="35.02" transform="rotate(-107.091 84.5747 61.6333)" fill="#D47B2D"/>
</svg>
