<svg width="169" height="169" viewBox="0 0 169 169" fill="none" xmlns="http://www.w3.org/2000/svg">
<path d="M0 20.0132C0 8.9602 8.9602 0 20.0132 0H148.987C160.04 0 169 8.9602 169 20.0132V148.987C169 160.04 160.04 169 148.987 169H20.0132C8.9602 169 0 160.04 0 148.987V20.0132Z" fill="white"/>
<path d="M34.9615 169C34.9615 156.719 44.9173 146.763 57.1984 146.763H110.443C122.724 146.763 132.68 156.719 132.68 169V169H34.9615V169Z" fill="#3423E9"/>
<path fill-rule="evenodd" clip-rule="evenodd" d="M87.4652 68.27H105.54C112.888 68.27 118.844 74.2265 118.844 81.5741C118.844 88.9218 112.888 94.8782 105.54 94.8782H87.4652V68.27Z" fill="#3423E9"/>
<path fill-rule="evenodd" clip-rule="evenodd" d="M97.5957 68.27H105.54C112.888 68.27 118.844 74.2265 118.844 81.5741C118.844 88.9218 112.888 94.8782 105.54 94.8782H97.5957V68.27Z" fill="#FFD214"/>
<rect x="60" y="43.4082" width="28" height="51" fill="#3423E9"/>
<rect x="74" y="47.4082" width="14" height="2" fill="#FFD214"/>
<rect x="74" y="54.4082" width="14" height="2" fill="#FFD214"/>
<rect x="74" y="61.4082" width="14" height="2" fill="#FFD214"/>
<path d="M60 84.9937H109.455V84.9937C109.455 90.4519 105.03 94.8767 99.5717 94.8767H60V84.9937Z" fill="#FFD214"/>
</svg>
