<svg width="169" height="169" viewBox="0 0 169 169" fill="none" xmlns="http://www.w3.org/2000/svg">
<path d="M0 20.0132C0 8.9602 8.9602 0 20.0132 0H148.987C160.04 0 169 8.9602 169 20.0132V148.987C169 160.04 160.04 169 148.987 169H20.0132C8.9602 169 0 160.04 0 148.987V20.0132Z" fill="white"/>
<path d="M34.9614 169C34.9614 156.719 44.9172 146.763 57.1983 146.763H110.443C122.724 146.763 132.68 156.719 132.68 169V169H34.9614V169Z" fill="#FF3E91"/>
<path d="M130.124 74.4933C130.124 59.9607 118.343 48.1797 103.81 48.1797H65.5997C51.0666 48.1797 39.2852 59.9607 39.2852 74.4933V74.4933C39.2852 89.0259 51.0666 100.807 65.5997 100.807H103.81C118.343 100.807 130.124 89.0259 130.124 74.4933V74.4933Z" fill="black"/>
<path d="M112.277 58.6811C112.277 55.9139 109.972 53.6707 107.129 53.6707V53.6707C104.285 53.6707 101.98 55.9139 101.98 58.6811V62.6179C101.98 65.3851 104.285 67.6283 107.129 67.6283V67.6283C109.972 67.6283 112.277 65.3851 112.277 62.6179V58.6811Z" fill="white"/>
<path d="M101.065 58.5021C101.065 55.8338 98.8624 53.6707 96.1454 53.6707V53.6707C93.4285 53.6707 91.2259 55.8338 91.2259 58.5021V62.7968C91.2259 65.4652 93.4285 67.6283 96.1454 67.6283V67.6283C98.8624 67.6283 101.065 65.4652 101.065 62.7968V58.5021Z" fill="white"/>
<path d="M90.0817 58.86C90.0817 55.994 87.7767 53.6707 84.9334 53.6707V53.6707C82.09 53.6707 79.785 55.994 79.785 58.86V62.4389C79.785 65.3049 82.09 67.6283 84.9334 67.6283V67.6283C87.7767 67.6283 90.0817 65.3049 90.0817 62.4389V58.86Z" fill="white"/>
<path d="M78.6411 58.2593C78.6411 55.4729 76.3874 53.214 73.6072 53.214V53.214C70.8271 53.214 68.5733 55.4729 68.5733 58.2593V62.5839C68.5733 65.3704 70.8271 67.6293 73.6072 67.6293V67.6293C76.3874 67.6293 78.6411 65.3704 78.6411 62.5839V58.2593Z" fill="white"/>
<path d="M54.6673 86.3927C54.6673 93.3431 68.2411 98.9775 84.9851 98.9775C101.729 98.9775 115.303 93.3431 115.303 86.3927C115.303 79.4424 101.729 73.808 84.9851 73.808C68.2411 73.808 54.6673 79.4424 54.6673 86.3927Z" fill="#FF7CB4"/>
<path d="M101.293 90.7144C101.293 87.9472 99.0396 85.704 96.2594 85.704V85.704C93.4793 85.704 91.2255 87.9472 91.2255 90.7144V94.6512C91.2255 97.4184 93.4793 99.6616 96.2594 99.6616V99.6616C99.0396 99.6616 101.293 97.4184 101.293 94.6512V90.7144Z" fill="white"/>
<path d="M90.3098 90.9026C90.3098 87.9055 87.9024 85.476 84.9327 85.476V85.476C81.963 85.476 79.5556 87.9055 79.5556 90.9026V94.9223C79.5556 97.9193 81.963 100.349 84.9327 100.349V100.349C87.9024 100.349 90.3098 97.9193 90.3098 94.9223V90.9026Z" fill="white"/>
<path d="M78.6411 90.7493C78.6411 87.9629 76.3874 85.704 73.6072 85.704V85.704C70.8271 85.704 68.5733 87.9629 68.5733 90.7493V95.0739C68.5733 97.8604 70.8271 100.119 73.6072 100.119V100.119C76.3874 100.119 78.6411 97.8604 78.6411 95.0739V90.7493Z" fill="white"/>
<path d="M67.4294 58.6811C67.4294 55.9139 65.1757 53.6707 62.3955 53.6707V53.6707C59.6154 53.6707 57.3616 55.9139 57.3616 58.6811V62.6179C57.3616 65.3851 59.6154 67.6283 62.3955 67.6283V67.6283C65.1757 67.6283 67.4294 65.3851 67.4294 62.6179V58.6811Z" fill="white"/>
<path fill-rule="evenodd" clip-rule="evenodd" d="M65.5997 56.0738H103.81C113.983 56.0738 122.23 64.3205 122.23 74.4933C122.23 84.6661 113.983 92.9128 103.81 92.9128H65.5997C55.4265 92.9128 47.1795 84.6661 47.1795 74.4933C47.1795 64.3205 55.4265 56.0738 65.5997 56.0738ZM103.81 48.1797C118.343 48.1797 130.124 59.9607 130.124 74.4933C130.124 89.0259 118.343 100.807 103.81 100.807H65.5997C51.0666 100.807 39.2852 89.0259 39.2852 74.4933C39.2852 59.9607 51.0666 48.1797 65.5997 48.1797H103.81Z" fill="#FF3E91"/>
</svg>
