<svg width="169" height="169" viewBox="0 0 169 169" fill="none" xmlns="http://www.w3.org/2000/svg">
<path d="M0 20.0132C0 8.9602 8.9602 0 20.0132 0H148.987C160.04 0 169 8.9602 169 20.0132V148.987C169 160.04 160.04 169 148.987 169H20.0132C8.9602 169 0 160.04 0 148.987V20.0132Z" fill="white"/>
<path d="M34.9615 169C34.9615 156.719 44.9173 146.763 57.1984 146.763H110.443C122.724 146.763 132.68 156.719 132.68 169V169H34.9615V169Z" fill="#FFD214"/>
<path d="M100.9 61.5835C100.9 56.2277 105.241 51.886 110.597 51.886H125.804C131.16 51.886 135.502 56.2277 135.502 61.5835V61.5835C135.502 66.9393 131.16 71.281 125.804 71.281H110.597C105.241 71.281 100.9 66.9393 100.9 61.5835V61.5835Z" fill="#FF3E91"/>
<path d="M89.1299 94.5928C89.1299 90.6562 92.3211 87.465 96.2577 87.465H107.435C111.372 87.465 114.563 90.6562 114.563 94.5928V94.5928C114.563 98.5293 111.372 101.721 107.435 101.721H96.2577C92.3211 101.721 89.1299 98.5293 89.1299 94.5928V94.5928Z" fill="#4ACDFF"/>
<path d="M101 62.0922L84 71.5922V52.5922L101 62.0922Z" fill="#FF3E91"/>
<path d="M89 94.5922L76 101.592V87.5922L89 94.5922Z" fill="#4ACDFF"/>
<path d="M79 70.5922L47 99.5922L47 41.5922L79 70.5922Z" fill="#3423E9"/>
<circle cx="128" cy="58.5922" r="2" fill="white"/>
<circle cx="109" cy="92.5922" r="2" fill="white"/>
<ellipse cx="71" cy="71.0922" rx="2" ry="2.5" fill="white"/>
</svg>
