<svg width="169" height="169" viewBox="0 0 169 169" fill="none" xmlns="http://www.w3.org/2000/svg">
<path d="M0 20.0132C0 8.9602 8.9602 0 20.0132 0H148.987C160.04 0 169 8.9602 169 20.0132V148.987C169 160.04 160.04 169 148.987 169H20.0132C8.9602 169 0 160.04 0 148.987V20.0132Z" fill="white"/>
<path d="M34.9615 169C34.9615 156.719 44.9173 146.763 57.1984 146.763H110.443C122.724 146.763 132.68 156.719 132.68 169V169H34.9615V169Z" fill="#3423E9"/>
<path d="M84.7892 105.592L74.5236 71.3733H95.0548L84.7892 105.592Z" fill="#FFD214"/>
<path fill-rule="evenodd" clip-rule="evenodd" d="M95.1357 72.0565C96.0008 70.4201 96.4906 68.5548 96.4906 66.5751C96.4906 60.0883 91.232 54.8298 84.7453 54.8298C78.2585 54.8298 73 60.0883 73 66.5751C73 68.5548 73.4898 70.4201 74.3548 72.0565H95.1357Z" fill="#D47B2D"/>
<path fill-rule="evenodd" clip-rule="evenodd" d="M95.1357 60.781C96.0008 59.1446 96.4906 57.2793 96.4906 55.2995C96.4906 48.8128 91.232 43.5543 84.7453 43.5543C78.2585 43.5543 73 48.8128 73 55.2995C73 57.2793 73.4898 59.1446 74.3548 60.781H95.1357Z" fill="#4ACDFF"/>
<path fill-rule="evenodd" clip-rule="evenodd" d="M95.1357 49.8187C96.0008 48.1824 96.4906 46.3171 96.4906 44.3373C96.4906 37.8506 91.232 32.592 84.7453 32.592C78.2585 32.592 73 37.8506 73 44.3373C73 46.3171 73.4898 48.1824 74.3548 49.8187H95.1357Z" fill="#FF3E91"/>
<mask id="mask0_678_4548" style="mask-type:alpha" maskUnits="userSpaceOnUse" x="74" y="71" width="22" height="35">
<path d="M84.7864 105.592L74.5208 71.3733H95.052L84.7864 105.592Z" fill="#FFD214"/>
</mask>
<g mask="url(#mask0_678_4548)">
<path d="M65.1746 82.0523L65.838 81.6652L82.6154 111.031L81.952 111.418L65.1746 82.0523Z" fill="#D47B2D"/>
<path d="M77.6302 68.3855L78.2937 67.9984L95.0711 97.3645L94.4077 97.7516L77.6302 68.3855Z" fill="#D47B2D"/>
<path d="M71.4023 75.219L72.0658 74.8319L88.8432 104.198L88.1797 104.585L71.4023 75.219Z" fill="#D47B2D"/>
<path d="M83.858 61.5517L84.5215 61.1646L101.299 90.5307L100.635 90.9178L83.858 61.5517Z" fill="#D47B2D"/>
<path d="M68.2883 78.6359L68.9518 78.2488L85.7292 107.615L85.0657 108.002L68.2883 78.6359Z" fill="#D47B2D"/>
<path d="M80.7443 64.9688L81.4077 64.5817L98.1851 93.9478L97.5217 94.3349L80.7443 64.9688Z" fill="#D47B2D"/>
<path d="M74.3174 71.4542L74.9808 71.0671L91.9571 100.781L91.2937 101.168L74.3174 71.4542Z" fill="#D47B2D"/>
<path d="M86.9722 58.1351L87.6356 57.748L104.413 87.1141L103.75 87.5012L86.9722 58.1351Z" fill="#D47B2D"/>
<path d="M104.413 82.0523L103.75 81.6652L86.9721 111.031L87.6356 111.418L104.413 82.0523Z" fill="#D47B2D"/>
<path d="M91.957 68.3855L91.2936 67.9984L74.5162 97.3645L75.1796 97.7516L91.957 68.3855Z" fill="#D47B2D"/>
<path d="M98.1852 75.219L97.5217 74.8319L80.7443 104.198L81.4078 104.585L98.1852 75.219Z" fill="#D47B2D"/>
<path d="M85.7294 61.5517L85.0659 61.1646L68.2885 90.5307L68.952 90.9178L85.7294 61.5517Z" fill="#D47B2D"/>
<path d="M101.299 78.6359L100.635 78.2488L83.8581 107.615L84.5215 108.002L101.299 78.6359Z" fill="#D47B2D"/>
<path d="M88.8433 64.9688L88.1798 64.5817L71.4024 93.9478L72.0659 94.3349L88.8433 64.9688Z" fill="#D47B2D"/>
<path d="M95.3506 71.3131L94.6871 70.9261L77.6304 100.781L78.2939 101.168L95.3506 71.3131Z" fill="#D47B2D"/>
<path d="M82.6154 58.1351L81.9519 57.748L65.1745 87.1141L65.838 87.5012L82.6154 58.1351Z" fill="#D47B2D"/>
</g>
</svg>
