<svg width="593" height="395" viewBox="0 0 593 395" fill="none" xmlns="http://www.w3.org/2000/svg">
<rect width="593" height="395" rx="27" fill="white"/>
<path fill-rule="evenodd" clip-rule="evenodd" d="M341.072 31.5464H252.928C247.377 31.5464 242.876 36.0466 242.876 41.5979C242.876 47.1492 247.377 51.6494 252.928 51.6494H341.072C346.623 51.6494 351.123 47.1492 351.123 41.5979C351.123 36.0466 346.623 31.5464 341.072 31.5464ZM252.928 30C246.523 30 241.33 35.1926 241.33 41.5979C241.33 48.0032 246.523 53.1958 252.928 53.1958H341.072C347.477 53.1958 352.67 48.0032 352.67 41.5979C352.67 35.1926 347.477 30 341.072 30H252.928Z" fill="black"/>
<path d="M252.397 35.9407C253.484 35.9407 254.434 36.1668 255.247 36.6188C256.07 37.0603 256.702 37.7015 257.143 38.5425C257.593 39.373 257.819 40.3454 257.819 41.4597C257.819 42.574 257.593 43.5411 257.143 44.361C256.702 45.181 256.07 45.8117 255.247 46.2532C254.434 46.6842 253.484 46.8997 252.397 46.8997H249.062V35.9407H252.397ZM252.397 45.4333C253.592 45.4333 254.508 45.0864 255.145 44.3926C255.781 43.6988 256.1 42.7211 256.1 41.4597C256.1 40.1877 255.781 39.1943 255.145 38.4794C254.508 37.7646 253.592 37.4072 252.397 37.4072H250.737V45.4333H252.397Z" fill="black"/>
<path d="M264.137 47.0101C263.186 47.0101 262.31 46.7736 261.506 46.3005C260.713 45.817 260.081 45.1495 259.611 44.298C259.151 43.436 258.92 42.4688 258.92 41.3966C258.92 40.3243 259.151 39.3625 259.611 38.511C260.081 37.6595 260.713 36.9972 261.506 36.5242C262.31 36.0406 263.186 35.7988 264.137 35.7988C265.097 35.7988 265.973 36.0406 266.767 36.5242C267.57 36.9972 268.202 37.6595 268.662 38.511C269.122 39.3625 269.353 40.3243 269.353 41.3966C269.353 42.4688 269.122 43.436 268.662 44.298C268.202 45.1495 267.57 45.817 266.767 46.3005C265.973 46.7736 265.097 47.0101 264.137 47.0101ZM264.137 45.4491C264.812 45.4491 265.415 45.2861 265.944 44.9602C266.473 44.6238 266.884 44.1508 267.178 43.5411C267.482 42.9209 267.634 42.206 267.634 41.3966C267.634 40.5871 267.482 39.8776 267.178 39.2679C266.884 38.6582 266.473 38.1904 265.944 37.8645C265.415 37.5386 264.812 37.3757 264.137 37.3757C263.461 37.3757 262.858 37.5386 262.329 37.8645C261.8 38.1904 261.384 38.6582 261.08 39.2679C260.787 39.8776 260.64 40.5871 260.64 41.3966C260.64 42.206 260.787 42.9209 261.08 43.5411C261.384 44.1508 261.8 44.6238 262.329 44.9602C262.858 45.2861 263.461 45.4491 264.137 45.4491Z" fill="black"/>
<path d="M278.568 35.9407L275.189 42.9261V46.8997H273.514V42.9261L270.119 35.9407H271.985L274.351 41.3178L276.717 35.9407H278.568Z" fill="black"/>
<path d="M284.555 47.0101C283.605 47.0101 282.728 46.7736 281.925 46.3005C281.131 45.817 280.5 45.1495 280.03 44.298C279.569 43.436 279.339 42.4688 279.339 41.3966C279.339 40.3243 279.569 39.3625 280.03 38.511C280.5 37.6595 281.131 36.9972 281.925 36.5242C282.728 36.0406 283.605 35.7988 284.555 35.7988C285.515 35.7988 286.392 36.0406 287.185 36.5242C287.988 36.9972 288.62 37.6595 289.081 38.511C289.541 39.3625 289.771 40.3243 289.771 41.3966C289.771 42.4688 289.541 43.436 289.081 44.298C288.62 45.1495 287.988 45.817 287.185 46.3005C286.392 46.7736 285.515 47.0101 284.555 47.0101ZM284.555 45.4491C285.231 45.4491 285.833 45.2861 286.362 44.9602C286.891 44.6238 287.303 44.1508 287.597 43.5411C287.9 42.9209 288.052 42.206 288.052 41.3966C288.052 40.5871 287.9 39.8776 287.597 39.2679C287.303 38.6582 286.891 38.1904 286.362 37.8645C285.833 37.5386 285.231 37.3757 284.555 37.3757C283.879 37.3757 283.277 37.5386 282.748 37.8645C282.219 38.1904 281.802 38.6582 281.499 39.2679C281.205 39.8776 281.058 40.5871 281.058 41.3966C281.058 42.206 281.205 42.9209 281.499 43.5411C281.802 44.1508 282.219 44.6238 282.748 44.9602C283.277 45.2861 283.879 45.4491 284.555 45.4491Z" fill="black"/>
<path d="M293.08 35.9407V42.9261C293.08 43.7566 293.281 44.3821 293.682 44.8026C294.094 45.223 294.662 45.4333 295.387 45.4333C296.121 45.4333 296.689 45.223 297.091 44.8026C297.502 44.3821 297.708 43.7566 297.708 42.9261V35.9407H299.383V42.8946C299.383 43.7881 299.202 44.545 298.84 45.1652C298.477 45.7854 297.992 46.248 297.385 46.5528C296.778 46.8577 296.107 47.0101 295.372 47.0101C294.637 47.0101 293.966 46.8577 293.359 46.5528C292.761 46.248 292.286 45.7854 291.934 45.1652C291.581 44.545 291.405 43.7881 291.405 42.8946V35.9407H293.08Z" fill="black"/>
<path d="M304.929 47.0101C304.243 47.0101 303.626 46.884 303.077 46.6317C302.529 46.3689 302.098 46.0009 301.784 45.5279C301.471 45.0548 301.314 44.503 301.314 43.8722H303.107C303.146 44.3453 303.317 44.7342 303.621 45.0391C303.935 45.3439 304.37 45.4964 304.929 45.4964C305.507 45.4964 305.957 45.3492 306.281 45.0548C306.604 44.75 306.765 44.361 306.765 43.888C306.765 43.5201 306.663 43.2205 306.457 42.9892C306.261 42.7579 306.011 42.5792 305.708 42.4531C305.414 42.3269 305.002 42.1903 304.473 42.0431C303.807 41.8539 303.264 41.6647 302.842 41.4754C302.431 41.2757 302.078 40.9708 301.784 40.5609C301.491 40.1509 301.344 39.6043 301.344 38.921C301.344 38.2902 301.491 37.7383 301.784 37.2653C302.078 36.7922 302.49 36.4296 303.019 36.1773C303.548 35.925 304.16 35.7988 304.855 35.7988C305.845 35.7988 306.653 36.0669 307.28 36.603C307.916 37.1286 308.269 37.854 308.338 38.779H306.486C306.457 38.3796 306.281 38.0379 305.957 37.7541C305.634 37.4703 305.208 37.3284 304.679 37.3284C304.199 37.3284 303.807 37.4598 303.504 37.7226C303.2 37.9854 303.048 38.3638 303.048 38.8579C303.048 39.1943 303.141 39.4729 303.327 39.6936C303.523 39.9039 303.768 40.0721 304.062 40.1982C304.356 40.3243 304.757 40.461 305.267 40.6082C305.943 40.8079 306.491 41.0076 306.912 41.2074C307.343 41.4071 307.706 41.7172 308 42.1377C308.303 42.5477 308.455 43.0996 308.455 43.7934C308.455 44.3505 308.313 44.8761 308.029 45.3702C307.755 45.8643 307.348 46.2638 306.81 46.5686C306.281 46.863 305.654 47.0101 304.929 47.0101Z" fill="black"/>
<path d="M317.573 39.2048C317.573 39.7619 317.45 40.2876 317.205 40.7816C316.96 41.2757 316.569 41.6804 316.03 41.9958C315.491 42.3006 314.8 42.4531 313.958 42.4531H312.107V46.8997H310.432V35.9407H313.958C314.742 35.9407 315.403 36.0879 315.942 36.3823C316.49 36.6661 316.897 37.055 317.161 37.5491C317.435 38.0432 317.573 38.5951 317.573 39.2048ZM313.958 40.9866C314.595 40.9866 315.07 40.8342 315.383 40.5293C315.697 40.214 315.853 39.7725 315.853 39.2048C315.853 38.0064 315.222 37.4072 313.958 37.4072H312.107V40.9866H313.958Z" fill="black"/>
<path d="M320.845 37.3914V40.6082H324.372V42.0746H320.845V45.4333H324.812V46.8997H319.17V35.925H324.812V37.3914H320.845Z" fill="black"/>
<path d="M333.032 44.6606H328.756L328.022 46.8997H326.273L329.932 35.925H331.871L335.53 46.8997H333.767L333.032 44.6606ZM332.562 43.1942L330.901 38.101L329.226 43.1942H332.562Z" fill="black"/>
<path d="M342.748 46.8997L338.796 41.9958V46.8997H337.121V35.9407H338.796V40.9393L342.763 35.9407H344.864L340.427 41.4281L344.937 46.8997H342.748Z" fill="black"/>
<path d="M352.669 41.5979L371.999 30V53.1958L352.669 41.5979Z" fill="black"/>
<path fill-rule="evenodd" clip-rule="evenodd" d="M352.669 41.5979L371.999 53.1958V30L352.669 41.5979Z" fill="black"/>
<path d="M241.33 41.5979L222 30V53.1958L241.33 41.5979Z" fill="black"/>
<path fill-rule="evenodd" clip-rule="evenodd" d="M241.33 41.5979L222 53.1958V30L241.33 41.5979Z" fill="black"/>
<rect width="50.0548" height="21" rx="10.5" transform="matrix(-1 0 0 1 322.213 233)" fill="#FF3E91"/>
<path d="M272.186 243.5L254.099 233V254L272.186 243.5Z" fill="#FF3E91"/>
<path d="M322.213 243.5L340.3 254V233L322.213 243.5Z" fill="#FF3E91"/>
</svg>
