<svg width="155" height="24" viewBox="0 0 155 24" fill="none" xmlns="http://www.w3.org/2000/svg">
<path fill-rule="evenodd" clip-rule="evenodd" d="M122.88 1.44H31.68C25.8479 1.44 21.12 6.16787 21.12 12C21.12 17.8321 25.8479 22.56 31.68 22.56H122.88C128.712 22.56 133.44 17.8321 133.44 12C133.44 6.16787 128.712 1.44 122.88 1.44ZM31.68 0C25.0526 0 19.68 5.37258 19.68 12C19.68 18.6274 25.0526 24 31.68 24H122.88C129.507 24 134.88 18.6274 134.88 12C134.88 5.37258 129.507 0 122.88 0H31.68Z" fill="white"/>
<path d="M30.8333 6.38594C31.9656 6.38594 32.955 6.61817 33.8017 7.08264C34.6585 7.53632 35.3164 8.19522 35.7755 9.05935C36.2447 9.91269 36.4793 10.9118 36.4793 12.0568C36.4793 13.2018 36.2447 14.1956 35.7755 15.0381C35.3164 15.8806 34.6585 16.5287 33.8017 16.9824C32.955 17.4253 31.9656 17.6467 30.8333 17.6467H27.36V6.38594H30.8333ZM30.8333 16.1399C32.0778 16.1399 33.0315 15.7834 33.6946 15.0705C34.3576 14.3576 34.6891 13.353 34.6891 12.0568C34.6891 10.7498 34.3576 9.72906 33.6946 8.99454C33.0315 8.26003 32.0778 7.89277 30.8333 7.89277H29.1043V16.1399H30.8333Z" fill="white"/>
<path d="M43.0584 17.7601C42.0689 17.7601 41.156 17.5171 40.3196 17.031C39.4933 16.5341 38.8354 15.8482 38.3458 14.9733C37.8663 14.0875 37.6266 13.0938 37.6266 11.992C37.6266 10.8902 37.8663 9.90188 38.3458 9.02695C38.8354 8.15201 39.4933 7.4715 40.3196 6.98543C41.156 6.48855 42.0689 6.24011 43.0584 6.24011C44.058 6.24011 44.971 6.48855 45.7972 6.98543C46.6337 7.4715 47.2916 8.15201 47.771 9.02695C48.2505 9.90188 48.4902 10.8902 48.4902 11.992C48.4902 13.0938 48.2505 14.0875 47.771 14.9733C47.2916 15.8482 46.6337 16.5341 45.7972 17.031C44.971 17.5171 44.058 17.7601 43.0584 17.7601ZM43.0584 16.1561C43.7622 16.1561 44.3896 15.9886 44.9404 15.6538C45.4912 15.3081 45.9196 14.8221 46.2257 14.1956C46.5419 13.5583 46.7 12.8237 46.7 11.992C46.7 11.1603 46.5419 10.4312 46.2257 9.80467C45.9196 9.17817 45.4912 8.6975 44.9404 8.36264C44.3896 8.02779 43.7622 7.86037 43.0584 7.86037C42.3546 7.86037 41.7272 8.02779 41.1764 8.36264C40.6256 8.6975 40.192 9.17817 39.8758 9.80467C39.5698 10.4312 39.4168 11.1603 39.4168 11.992C39.4168 12.8237 39.5698 13.5583 39.8758 14.1956C40.192 14.8221 40.6256 15.3081 41.1764 15.6538C41.7272 15.9886 42.3546 16.1561 43.0584 16.1561Z" fill="white"/>
<path d="M58.0865 6.38594L54.5673 13.5637V17.6467H52.823V13.5637L49.2886 6.38594H51.2317L53.6952 11.911L56.1586 6.38594H58.0865Z" fill="white"/>
<path d="M64.3211 17.7601C63.3316 17.7601 62.4187 17.5171 61.5822 17.031C60.756 16.5341 60.0981 15.8482 59.6084 14.9733C59.129 14.0875 58.8893 13.0938 58.8893 11.992C58.8893 10.8902 59.129 9.90188 59.6084 9.02695C60.0981 8.15201 60.756 7.4715 61.5822 6.98543C62.4187 6.48855 63.3316 6.24011 64.3211 6.24011C65.3207 6.24011 66.2337 6.48855 67.0599 6.98543C67.8964 7.4715 68.5543 8.15201 69.0337 9.02695C69.5131 9.90188 69.7528 10.8902 69.7528 11.992C69.7528 13.0938 69.5131 14.0875 69.0337 14.9733C68.5543 15.8482 67.8964 16.5341 67.0599 17.031C66.2337 17.5171 65.3207 17.7601 64.3211 17.7601ZM64.3211 16.1561C65.0249 16.1561 65.6522 15.9886 66.2031 15.6538C66.7539 15.3081 67.1823 14.8221 67.4883 14.1956C67.8045 13.5583 67.9627 12.8237 67.9627 11.992C67.9627 11.1603 67.8045 10.4312 67.4883 9.80467C67.1823 9.17817 66.7539 8.6975 66.2031 8.36264C65.6522 8.02779 65.0249 7.86037 64.3211 7.86037C63.6172 7.86037 62.9899 8.02779 62.4391 8.36264C61.8883 8.6975 61.4547 9.17817 61.1385 9.80467C60.8325 10.4312 60.6795 11.1603 60.6795 11.992C60.6795 12.8237 60.8325 13.5583 61.1385 14.1956C61.4547 14.8221 61.8883 15.3081 62.4391 15.6538C62.9899 15.9886 63.6172 16.1561 64.3211 16.1561Z" fill="white"/>
<path d="M73.1983 6.38594V13.5637C73.1983 14.417 73.4074 15.0597 73.8256 15.4918C74.254 15.9238 74.8456 16.1399 75.6005 16.1399C76.3655 16.1399 76.9572 15.9238 77.3754 15.4918C77.8038 15.0597 78.018 14.417 78.018 13.5637V6.38594H79.7623V13.5313C79.7623 14.4494 79.5736 15.2271 79.1962 15.8644C78.8187 16.5017 78.3138 16.977 77.6814 17.2902C77.049 17.6035 76.3502 17.7601 75.5852 17.7601C74.8201 17.7601 74.1214 17.6035 73.489 17.2902C72.8668 16.977 72.372 16.5017 72.0048 15.8644C71.6376 15.2271 71.454 14.4494 71.454 13.5313V6.38594H73.1983Z" fill="white"/>
<path d="M85.5373 17.7601C84.8232 17.7601 84.1806 17.6305 83.6094 17.3713C83.0381 17.1012 82.5893 16.7231 82.2629 16.2371C81.9365 15.751 81.7733 15.1839 81.7733 14.5358H83.64C83.6808 15.0219 83.8593 15.4215 84.1755 15.7348C84.5019 16.048 84.9558 16.2047 85.5373 16.2047C86.1391 16.2047 86.6083 16.0534 86.9449 15.751C87.2815 15.4377 87.4499 15.0381 87.4499 14.552C87.4499 14.174 87.3428 13.8661 87.1285 13.6285C86.9245 13.3908 86.6644 13.2072 86.3482 13.0776C86.0422 12.948 85.6138 12.8075 85.0629 12.6563C84.3693 12.4619 83.8032 12.2675 83.3646 12.073C82.9361 11.8678 82.5689 11.5545 82.2629 11.1333C81.9569 10.712 81.8039 10.1503 81.8039 9.44821C81.8039 8.80011 81.9569 8.23302 82.2629 7.74695C82.5689 7.26087 82.9973 6.88821 83.5482 6.62897C84.099 6.36973 84.7365 6.24011 85.4608 6.24011C86.491 6.24011 87.3325 6.51556 87.9854 7.06644C88.6484 7.60653 89.0156 8.35184 89.087 9.30239H87.1591C87.1285 8.89193 86.9449 8.54087 86.6083 8.24923C86.2717 7.95758 85.828 7.81176 85.2771 7.81176C84.7773 7.81176 84.3693 7.94678 84.0531 8.21682C83.7369 8.48686 83.5788 8.87572 83.5788 9.3834C83.5788 9.72906 83.6757 10.0153 83.8695 10.2421C84.0735 10.4582 84.3285 10.631 84.6345 10.7606C84.9405 10.8902 85.3587 11.0307 85.8892 11.1819C86.593 11.3871 87.1642 11.5923 87.6029 11.7976C88.0517 12.0028 88.4291 12.3215 88.7351 12.7535C89.0513 13.1748 89.2094 13.7419 89.2094 14.4548C89.2094 15.0273 89.0615 15.5674 88.7657 16.075C88.4801 16.5827 88.0568 16.9932 87.4958 17.3064C86.9449 17.6089 86.2921 17.7601 85.5373 17.7601Z" fill="white"/>
<path d="M98.7038 9.73986C98.7038 10.3123 98.5763 10.8524 98.3213 11.3601C98.0663 11.8678 97.6583 12.2837 97.0972 12.6077C96.5362 12.921 95.8171 13.0776 94.9398 13.0776H93.0119V17.6467H91.2676V6.38594H94.9398C95.7559 6.38594 96.4444 6.53716 97.0054 6.83961C97.5766 7.13125 98 7.53091 98.2754 8.03859C98.561 8.54627 98.7038 9.11336 98.7038 9.73986ZM94.9398 11.5707C95.6028 11.5707 96.0976 11.4141 96.424 11.1009C96.7504 10.7768 96.9136 10.3232 96.9136 9.73986C96.9136 8.50847 96.2557 7.89277 94.9398 7.89277H93.0119V11.5707H94.9398Z" fill="white"/>
<path d="M102.112 7.87657V11.1819H105.784V12.6887H102.112V16.1399H106.243V17.6467H100.367V6.36973H106.243V7.87657H102.112Z" fill="white"/>
<path d="M114.802 15.3459H110.35L109.585 17.6467H107.764L111.574 6.36973H113.594L117.403 17.6467H115.567L114.802 15.3459ZM114.313 13.8391L112.584 8.60568L110.839 13.8391H114.313Z" fill="white"/>
<path d="M124.92 17.6467L120.804 12.6077V17.6467H119.06V6.38594H120.804V11.5221L124.936 6.38594H127.124L122.503 12.0244L127.2 17.6467H124.92Z" fill="white"/>
<path d="M134.88 12L154.56 0V24L134.88 12Z" fill="black"/>
<path fill-rule="evenodd" clip-rule="evenodd" d="M134.88 12L154.56 0V24L134.88 12Z" fill="white"/>
<path d="M19.68 12L-7.62939e-06 0V24L19.68 12Z" fill="black"/>
<path fill-rule="evenodd" clip-rule="evenodd" d="M19.68 12L-7.62939e-06 0V24L19.68 12Z" fill="white"/>
</svg>
