<svg width="23" height="22" viewBox="0 0 23 22" fill="none" xmlns="http://www.w3.org/2000/svg">
<mask id="mask0_621_521" style="mask-type:alpha" maskUnits="userSpaceOnUse" x="0" y="0" width="23" height="22">
<circle r="10.902" transform="matrix(-1 0 0 1 11.7719 11.0225)" fill="#C4C4C4"/>
</mask>
<g mask="url(#mask0_621_521)">
<path d="M11.8723 11.078L16.4314 0.0713969L19.6586 3.29375L22.8857 6.51609L11.8723 11.078Z" fill="#3423E9"/>
<path d="M11.8723 11.078L0.865628 6.51893L4.08798 3.29174L7.31032 0.0645419L11.8723 11.078Z" fill="#3423E9"/>
<path d="M11.8723 11.078L7.31316 22.0847L4.08597 18.8623L0.858773 15.64L11.8723 11.078Z" fill="#3423E9"/>
<path d="M11.8723 11.078L22.8789 15.6371L19.6565 18.8643L16.4342 22.0915L11.8723 11.078Z" fill="#3423E9"/>
<path d="M11.8725 11.0791L7.31344 0.072463L11.874 0.0690355L16.4345 0.0656079L11.8725 11.0791Z" fill="#FF3E91"/>
<path d="M11.8725 11.0791L0.865901 15.6382L0.862473 11.0777L0.859046 6.51716L11.8725 11.0791Z" fill="#FF3E91"/>
<path d="M11.8725 11.0791L16.4316 22.0857L11.8711 22.0892L7.3106 22.0926L11.8725 11.0791Z" fill="#FF3E91"/>
<path d="M11.8725 11.0791L22.8792 6.52L22.8826 11.0805L22.886 15.641L11.8725 11.0791Z" fill="#FF3E91"/>
</g>
</svg>
