<svg width="22" height="22" viewBox="0 0 22 22" fill="none" xmlns="http://www.w3.org/2000/svg">
<mask id="mask0_621_506" style="mask-type:alpha" maskUnits="userSpaceOnUse" x="0" y="0" width="22" height="22">
<circle r="10.902" transform="matrix(-1 0 0 1 10.9638 11.0225)" fill="#C4C4C4"/>
</mask>
<g mask="url(#mask0_621_506)">
<path d="M11.0642 11.1225L15.6233 0.11583L18.8504 3.33818L22.0776 6.56053L11.0642 11.1225Z" fill="#3423E9"/>
<path d="M11.0642 11.1225L0.0575228 6.56337L3.27987 3.33617L6.50222 0.108975L11.0642 11.1225Z" fill="#3423E9"/>
<path d="M11.0642 11.1225L6.50506 22.1291L3.27786 18.9067L0.0506678 15.6844L11.0642 11.1225Z" fill="#3423E9"/>
<path d="M11.0642 11.1225L22.0708 15.6816L18.8484 18.9088L15.6261 22.1359L11.0642 11.1225Z" fill="#3423E9"/>
<path d="M11.0644 11.1226L6.50533 0.115981L11.0658 0.112554L15.6264 0.109126L11.0644 11.1226Z" fill="#4ACDFF"/>
<path d="M11.0644 11.1226L0.0577951 15.6817L0.0543672 11.1212L0.0509392 6.56068L11.0644 11.1226Z" fill="#4ACDFF"/>
<path d="M11.0644 11.1226L15.6235 22.1292L11.063 22.1327L6.50249 22.1361L11.0644 11.1226Z" fill="#4ACDFF"/>
<path d="M11.0644 11.1226L22.0711 6.56352L22.0745 11.124L22.0779 15.6845L11.0644 11.1226Z" fill="#4ACDFF"/>
</g>
</svg>
