<svg width="22" height="22" viewBox="0 0 22 22" fill="none" xmlns="http://www.w3.org/2000/svg">
<mask id="mask0_621_510" style="mask-type:alpha" maskUnits="userSpaceOnUse" x="0" y="0" width="22" height="22">
<circle r="10.902" transform="matrix(-1 0 0 1 10.9076 11.0225)" fill="#C4C4C4"/>
</mask>
<g mask="url(#mask0_621_510)">
<path d="M11.0141 11.1225L15.5732 0.11583L18.8004 3.33818L22.0276 6.56053L11.0141 11.1225Z" fill="#D47B2D"/>
<path d="M11.0141 11.1225L0.00747397 6.56337L3.22982 3.33617L6.45217 0.108975L11.0141 11.1225Z" fill="#D47B2D"/>
<path d="M11.0141 11.1225L6.45501 22.1291L3.22781 18.9067L0.000618953 15.6844L11.0141 11.1225Z" fill="#D47B2D"/>
<path d="M11.0141 11.1225L22.0207 15.6816L18.7984 18.9088L15.576 22.1359L11.0141 11.1225Z" fill="#D47B2D"/>
<path d="M11.0141 11.1226L6.45504 0.115981L11.0156 0.112554L15.5761 0.109126L11.0141 11.1226Z" fill="#FFD214"/>
<path d="M11.0141 11.1226L0.00750244 15.6817L0.00407493 11.1212L0.00064742 6.56068L11.0141 11.1226Z" fill="#FFD214"/>
<path d="M11.0141 11.1226L15.5732 22.1292L11.0127 22.1327L6.4522 22.1361L11.0141 11.1226Z" fill="#FFD214"/>
<path d="M11.0141 11.1226L22.0208 6.56352L22.0242 11.124L22.0276 15.6845L11.0141 11.1226Z" fill="#FFD214"/>
</g>
</svg>
