<svg width="350" height="22" viewBox="0 0 350 22" fill="none" xmlns="http://www.w3.org/2000/svg">
<rect x="165.496" y="12.587" width="3.1286" height="26.8097" transform="rotate(-90 165.496 12.587)" fill="#D47B2D"/>
<ellipse cx="157.505" cy="11.0231" rx="9.79493" ry="9.77086" transform="rotate(-90 157.505 11.0231)" fill="#FF3E91"/>
<rect x="155.869" y="21.9244" width="21.8039" height="3.32113" transform="rotate(-90 155.869 21.9244)" fill="#FF3E91"/>
<rect x="17.761" y="12.587" width="3.1286" height="26.8097" transform="rotate(-90 17.761 12.587)" fill="#D47B2D"/>
<ellipse cx="9.77086" cy="11.0231" rx="9.79493" ry="9.77086" transform="rotate(-90 9.77086 11.0231)" fill="#4ACDFF"/>
<rect x="8.13468" y="21.9244" width="21.8039" height="3.32113" transform="rotate(-90 8.13468 21.9244)" fill="#4ACDFF"/>
<rect width="3.1286" height="26.8097" transform="matrix(0 -1 -1 0 251.039 12.587)" fill="#D47B2D"/>
<ellipse rx="9.79493" ry="9.77086" transform="matrix(0 -1 -1 0 259.03 11.0231)" fill="#FFD214"/>
<rect width="21.8039" height="3.32113" transform="matrix(0 -1 -1 0 260.666 21.9244)" fill="#FFD214"/>
<mask id="mask0_566_187" style="mask-type:alpha" maskUnits="userSpaceOnUse" x="197" y="0" width="23" height="22">
<circle r="10.902" transform="matrix(-1 0 0 1 208.267 11.0225)" fill="#C4C4C4"/>
</mask>
<g mask="url(#mask0_566_187)">
<path d="M208.368 11.1225L212.927 0.11583L216.154 3.33818L219.381 6.56053L208.368 11.1225Z" fill="#3423E9"/>
<path d="M208.368 11.1225L197.361 6.56337L200.584 3.33617L203.806 0.108975L208.368 11.1225Z" fill="#3423E9"/>
<path d="M208.368 11.1225L203.809 22.1291L200.582 18.9067L197.354 15.6844L208.368 11.1225Z" fill="#3423E9"/>
<path d="M208.368 11.1225L219.375 15.6816L216.152 18.9088L212.93 22.1359L208.368 11.1225Z" fill="#3423E9"/>
<path d="M208.368 11.1226L203.809 0.115981L208.369 0.112554L212.93 0.109126L208.368 11.1226Z" fill="#4ACDFF"/>
<path d="M208.368 11.1226L197.361 15.6817L197.358 11.1212L197.355 6.56068L208.368 11.1226Z" fill="#4ACDFF"/>
<path d="M208.368 11.1226L212.927 22.1292L208.367 22.1327L203.806 22.1361L208.368 11.1226Z" fill="#4ACDFF"/>
<path d="M208.368 11.1226L219.375 6.56352L219.378 11.124L219.382 15.6845L208.368 11.1226Z" fill="#4ACDFF"/>
</g>
<mask id="mask1_566_187" style="mask-type:alpha" maskUnits="userSpaceOnUse" x="301" y="0" width="23" height="22">
<circle r="10.902" transform="matrix(-1 0 0 1 312.211 11.0225)" fill="#C4C4C4"/>
</mask>
<g mask="url(#mask1_566_187)">
<path d="M312.318 11.1225L316.877 0.11583L320.104 3.33818L323.331 6.56053L312.318 11.1225Z" fill="#D47B2D"/>
<path d="M312.318 11.1225L301.311 6.56337L304.534 3.33617L307.756 0.108975L312.318 11.1225Z" fill="#D47B2D"/>
<path d="M312.318 11.1225L307.759 22.1291L304.532 18.9067L301.304 15.6844L312.318 11.1225Z" fill="#D47B2D"/>
<path d="M312.318 11.1225L323.324 15.6816L320.102 18.9088L316.88 22.1359L312.318 11.1225Z" fill="#D47B2D"/>
<path d="M312.318 11.1226L307.759 0.115981L312.319 0.112554L316.88 0.109126L312.318 11.1226Z" fill="#FFD214"/>
<path d="M312.318 11.1226L301.311 15.6817L301.308 11.1212L301.304 6.56068L312.318 11.1226Z" fill="#FFD214"/>
<path d="M312.318 11.1226L316.877 22.1292L312.317 22.1327L307.756 22.1361L312.318 11.1226Z" fill="#FFD214"/>
<path d="M312.318 11.1226L323.325 6.56352L323.328 11.124L323.331 15.6845L312.318 11.1226Z" fill="#FFD214"/>
</g>
<ellipse rx="10.5" ry="11" transform="matrix(-1 0 0 1 103.424 11)" fill="#FFD214"/>
<path fill-rule="evenodd" clip-rule="evenodd" d="M119.304 0.120483H131.772C137.793 0.120483 142.674 5.00146 142.674 11.0225C142.674 17.0434 137.793 21.9244 131.772 21.9244H119.304V0.120483Z" fill="#3423E9"/>
<path fill-rule="evenodd" clip-rule="evenodd" d="M296.412 0.120483H284.763C278.742 0.120483 273.861 5.00146 273.861 11.0225C273.861 17.0434 278.742 21.9244 284.763 21.9244H296.412V0.120483Z" fill="#FF3E91"/>
<mask id="mask2_566_187" style="mask-type:alpha" maskUnits="userSpaceOnUse" x="328" y="0" width="22" height="22">
<circle r="10.902" transform="matrix(-1 0 0 1 339.076 11.0225)" fill="#C4C4C4"/>
</mask>
<g mask="url(#mask2_566_187)">
<path d="M339.176 11.078L343.735 0.0713969L346.962 3.29375L350.19 6.51609L339.176 11.078Z" fill="#3423E9"/>
<path d="M339.176 11.078L328.17 6.51893L331.392 3.29174L334.614 0.0645419L339.176 11.078Z" fill="#3423E9"/>
<path d="M339.176 11.078L334.617 22.0847L331.39 18.8623L328.163 15.64L339.176 11.078Z" fill="#3423E9"/>
<path d="M339.176 11.078L350.183 15.6371L346.96 18.8643L343.738 22.0915L339.176 11.078Z" fill="#3423E9"/>
<path d="M339.176 11.0791L334.617 0.072463L339.178 0.0690355L343.738 0.0656079L339.176 11.0791Z" fill="#FF3E91"/>
<path d="M339.176 11.0791L328.17 15.6382L328.166 11.0777L328.163 6.51716L339.176 11.0791Z" fill="#FF3E91"/>
<path d="M339.176 11.0791L343.735 22.0857L339.175 22.0892L334.614 22.0926L339.176 11.0791Z" fill="#FF3E91"/>
<path d="M339.176 11.0791L350.183 6.52L350.186 11.0805L350.19 15.641L339.176 11.0791Z" fill="#FF3E91"/>
</g>
<path d="M87.4966 21.925L81.7879 13.0336L78.4968 16.3888L87.4966 21.925Z" fill="#D47B2D"/>
<rect x="49.4725" y="0.120483" width="38.0826" height="21.8041" rx="10.9021" fill="#D47B2D"/>
<ellipse cx="62.5035" cy="11.0464" rx="1.68092" ry="1.70493" fill="white"/>
<ellipse cx="68.4588" cy="11.0464" rx="1.68092" ry="1.70493" fill="white"/>
<ellipse cx="74.4136" cy="11.0464" rx="1.68092" ry="1.70493" fill="white"/>
</svg>
