<svg width="169" height="169" viewBox="0 0 169 169" fill="none" xmlns="http://www.w3.org/2000/svg">
<mask id="mask0_492_145" style="mask-type:alpha" maskUnits="userSpaceOnUse" x="0" y="0" width="169" height="169">
<path d="M0 20C0 8.9543 8.95431 0 20 0L149 0C160.046 0 169 8.95431 169 20V149C169 160.046 160.046 169 149 169H20C8.9543 169 0 160.046 0 149L0 20Z" fill="white"/>
</mask>
<g mask="url(#mask0_492_145)">
<path d="M85.0596 85.0596L33.6141 -36.5545L84.1607 -36.9714L134.707 -37.3882L85.0596 85.0596Z" fill="#D47B2D"/>
<path d="M85.0596 85.0596L-36.5545 136.505L-36.9714 85.9585L-37.3882 35.412L85.0596 85.0596Z" fill="#D47B2D"/>
<path d="M85.0596 85.0596L136.505 206.674L85.9585 207.091L35.412 207.507L85.0596 85.0596Z" fill="#D47B2D"/>
<path d="M85.0596 85.0596L206.674 33.6141L207.091 84.1607L207.507 134.707L85.0596 85.0596Z" fill="#D47B2D"/>
<path d="M85.0522 85.0543L-37.3231 35.4466L-1.87869 -0.59261L33.5657 -36.6318L85.0522 85.0543Z" fill="#4ACDFF"/>
<path d="M85.0522 85.0543L35.4444 207.43L-0.594796 171.985L-36.634 136.541L85.0522 85.0543Z" fill="#4ACDFF"/>
<path d="M85.0522 85.0543L207.427 134.662L171.983 170.701L136.539 206.74L85.0522 85.0543Z" fill="#4ACDFF"/>
<path d="M85.0522 85.0543L134.66 -37.3209L170.699 -1.87651L206.738 33.5679L85.0522 85.0543Z" fill="#4ACDFF"/>
</g>
</svg>
