<svg width="593" height="395" viewBox="0 0 593 395" fill="none" xmlns="http://www.w3.org/2000/svg">
<rect width="593" height="395" rx="27" fill="white"/>
<path fill-rule="evenodd" clip-rule="evenodd" d="M341.072 31.5464H252.928C247.377 31.5464 242.876 36.0466 242.876 41.5979C242.876 47.1492 247.377 51.6494 252.928 51.6494H341.072C346.623 51.6494 351.123 47.1492 351.123 41.5979C351.123 36.0466 346.623 31.5464 341.072 31.5464ZM252.928 30C246.523 30 241.33 35.1926 241.33 41.5979C241.33 48.0032 246.523 53.1958 252.928 53.1958H341.072C347.477 53.1958 352.67 48.0032 352.67 41.5979C352.67 35.1926 347.477 30 341.072 30H252.928Z" fill="black"/>
<path d="M252.397 35.9407C253.484 35.9407 254.434 36.1668 255.247 36.6188C256.07 37.0603 256.702 37.7015 257.143 38.5425C257.593 39.373 257.819 40.3454 257.819 41.4597C257.819 42.574 257.593 43.5411 257.143 44.361C256.702 45.181 256.07 45.8117 255.247 46.2532C254.434 46.6842 253.484 46.8997 252.397 46.8997H249.062V35.9407H252.397ZM252.397 45.4333C253.592 45.4333 254.508 45.0864 255.145 44.3926C255.781 43.6988 256.1 42.7211 256.1 41.4597C256.1 40.1877 255.781 39.1943 255.145 38.4794C254.508 37.7646 253.592 37.4072 252.397 37.4072H250.737V45.4333H252.397Z" fill="black"/>
<path d="M264.137 47.0101C263.186 47.0101 262.31 46.7736 261.506 46.3005C260.713 45.817 260.081 45.1495 259.611 44.298C259.151 43.436 258.92 42.4688 258.92 41.3966C258.92 40.3243 259.151 39.3625 259.611 38.511C260.081 37.6595 260.713 36.9972 261.506 36.5242C262.31 36.0406 263.186 35.7988 264.137 35.7988C265.097 35.7988 265.973 36.0406 266.767 36.5242C267.57 36.9972 268.202 37.6595 268.662 38.511C269.122 39.3625 269.353 40.3243 269.353 41.3966C269.353 42.4688 269.122 43.436 268.662 44.298C268.202 45.1495 267.57 45.817 266.767 46.3005C265.973 46.7736 265.097 47.0101 264.137 47.0101ZM264.137 45.4491C264.812 45.4491 265.415 45.2861 265.944 44.9602C266.473 44.6238 266.884 44.1508 267.178 43.5411C267.482 42.9209 267.634 42.206 267.634 41.3966C267.634 40.5871 267.482 39.8776 267.178 39.2679C266.884 38.6582 266.473 38.1904 265.944 37.8645C265.415 37.5386 264.812 37.3757 264.137 37.3757C263.461 37.3757 262.858 37.5386 262.329 37.8645C261.8 38.1904 261.384 38.6582 261.08 39.2679C260.787 39.8776 260.64 40.5871 260.64 41.3966C260.64 42.206 260.787 42.9209 261.08 43.5411C261.384 44.1508 261.8 44.6238 262.329 44.9602C262.858 45.2861 263.461 45.4491 264.137 45.4491Z" fill="black"/>
<path d="M278.568 35.9407L275.189 42.9261V46.8997H273.514V42.9261L270.119 35.9407H271.985L274.351 41.3178L276.717 35.9407H278.568Z" fill="black"/>
<path d="M284.555 47.0101C283.605 47.0101 282.728 46.7736 281.925 46.3005C281.131 45.817 280.5 45.1495 280.03 44.298C279.569 43.436 279.339 42.4688 279.339 41.3966C279.339 40.3243 279.569 39.3625 280.03 38.511C280.5 37.6595 281.131 36.9972 281.925 36.5242C282.728 36.0406 283.605 35.7988 284.555 35.7988C285.515 35.7988 286.392 36.0406 287.185 36.5242C287.988 36.9972 288.62 37.6595 289.081 38.511C289.541 39.3625 289.771 40.3243 289.771 41.3966C289.771 42.4688 289.541 43.436 289.081 44.298C288.62 45.1495 287.988 45.817 287.185 46.3005C286.392 46.7736 285.515 47.0101 284.555 47.0101ZM284.555 45.4491C285.231 45.4491 285.833 45.2861 286.362 44.9602C286.891 44.6238 287.303 44.1508 287.597 43.5411C287.9 42.9209 288.052 42.206 288.052 41.3966C288.052 40.5871 287.9 39.8776 287.597 39.2679C287.303 38.6582 286.891 38.1904 286.362 37.8645C285.833 37.5386 285.231 37.3757 284.555 37.3757C283.879 37.3757 283.277 37.5386 282.748 37.8645C282.219 38.1904 281.802 38.6582 281.499 39.2679C281.205 39.8776 281.058 40.5871 281.058 41.3966C281.058 42.206 281.205 42.9209 281.499 43.5411C281.802 44.1508 282.219 44.6238 282.748 44.9602C283.277 45.2861 283.879 45.4491 284.555 45.4491Z" fill="black"/>
<path d="M293.08 35.9407V42.9261C293.08 43.7566 293.281 44.3821 293.682 44.8026C294.094 45.223 294.662 45.4333 295.387 45.4333C296.121 45.4333 296.689 45.223 297.091 44.8026C297.502 44.3821 297.708 43.7566 297.708 42.9261V35.9407H299.383V42.8946C299.383 43.7881 299.202 44.545 298.84 45.1652C298.477 45.7854 297.992 46.248 297.385 46.5528C296.778 46.8577 296.107 47.0101 295.372 47.0101C294.637 47.0101 293.966 46.8577 293.359 46.5528C292.761 46.248 292.286 45.7854 291.934 45.1652C291.581 44.545 291.405 43.7881 291.405 42.8946V35.9407H293.08Z" fill="black"/>
<path d="M304.929 47.0101C304.243 47.0101 303.626 46.884 303.077 46.6317C302.529 46.3689 302.098 46.0009 301.784 45.5279C301.471 45.0548 301.314 44.503 301.314 43.8722H303.107C303.146 44.3453 303.317 44.7342 303.621 45.0391C303.935 45.3439 304.37 45.4964 304.929 45.4964C305.507 45.4964 305.957 45.3492 306.281 45.0548C306.604 44.75 306.765 44.361 306.765 43.888C306.765 43.5201 306.663 43.2205 306.457 42.9892C306.261 42.7579 306.011 42.5792 305.708 42.4531C305.414 42.3269 305.002 42.1903 304.473 42.0431C303.807 41.8539 303.264 41.6647 302.842 41.4754C302.431 41.2757 302.078 40.9708 301.784 40.5609C301.491 40.1509 301.344 39.6043 301.344 38.921C301.344 38.2902 301.491 37.7383 301.784 37.2653C302.078 36.7922 302.49 36.4296 303.019 36.1773C303.548 35.925 304.16 35.7988 304.855 35.7988C305.845 35.7988 306.653 36.0669 307.28 36.603C307.916 37.1286 308.269 37.854 308.338 38.779H306.486C306.457 38.3796 306.281 38.0379 305.957 37.7541C305.634 37.4703 305.208 37.3284 304.679 37.3284C304.199 37.3284 303.807 37.4598 303.504 37.7226C303.2 37.9854 303.048 38.3638 303.048 38.8579C303.048 39.1943 303.141 39.4729 303.327 39.6936C303.523 39.9039 303.768 40.0721 304.062 40.1982C304.356 40.3243 304.757 40.461 305.267 40.6082C305.943 40.8079 306.491 41.0076 306.912 41.2074C307.343 41.4071 307.706 41.7172 308 42.1377C308.303 42.5477 308.455 43.0996 308.455 43.7934C308.455 44.3505 308.313 44.8761 308.029 45.3702C307.755 45.8643 307.348 46.2638 306.81 46.5686C306.281 46.863 305.654 47.0101 304.929 47.0101Z" fill="black"/>
<path d="M317.573 39.2048C317.573 39.7619 317.45 40.2876 317.205 40.7816C316.96 41.2757 316.569 41.6804 316.03 41.9958C315.491 42.3006 314.8 42.4531 313.958 42.4531H312.107V46.8997H310.432V35.9407H313.958C314.742 35.9407 315.403 36.0879 315.942 36.3823C316.49 36.6661 316.897 37.055 317.161 37.5491C317.435 38.0432 317.573 38.5951 317.573 39.2048ZM313.958 40.9866C314.595 40.9866 315.07 40.8342 315.383 40.5293C315.697 40.214 315.853 39.7725 315.853 39.2048C315.853 38.0064 315.222 37.4072 313.958 37.4072H312.107V40.9866H313.958Z" fill="black"/>
<path d="M320.845 37.3914V40.6082H324.372V42.0746H320.845V45.4333H324.812V46.8997H319.17V35.925H324.812V37.3914H320.845Z" fill="black"/>
<path d="M333.032 44.6606H328.756L328.022 46.8997H326.273L329.932 35.925H331.871L335.53 46.8997H333.767L333.032 44.6606ZM332.562 43.1942L330.901 38.101L329.226 43.1942H332.562Z" fill="black"/>
<path d="M342.748 46.8997L338.796 41.9958V46.8997H337.121V35.9407H338.796V40.9393L342.763 35.9407H344.864L340.427 41.4281L344.937 46.8997H342.748Z" fill="black"/>
<path d="M352.669 41.5979L371.999 30V53.1958L352.669 41.5979Z" fill="black"/>
<path fill-rule="evenodd" clip-rule="evenodd" d="M352.669 41.5979L371.999 53.1958V30L352.669 41.5979Z" fill="black"/>
<path d="M241.33 41.5979L222 30V53.1958L241.33 41.5979Z" fill="black"/>
<path fill-rule="evenodd" clip-rule="evenodd" d="M241.33 41.5979L222 53.1958V30L241.33 41.5979Z" fill="black"/>
<circle cx="309" cy="359" r="6" fill="black"/>
<circle cx="285" cy="359" r="6" fill="#C4C4C4"/>
<rect x="397" y="133" width="3.33" height="114" rx="1.665" transform="rotate(-90 397 133)" fill="black"/>
<rect x="129" y="133" width="3.33" height="70" rx="1.665" transform="rotate(-90 129 133)" fill="black"/>
<g filter="url(#filter0_d_733_415)">
<path d="M213.312 133.978C213.312 122.944 222.257 114 233.29 114H362.036C373.07 114 382.014 122.944 382.014 133.978V262.724C382.014 273.757 373.07 282.701 362.036 282.701H233.29C222.257 282.701 213.312 273.757 213.312 262.724V133.978Z" fill="white"/>
</g>
<path d="M248.213 282.701C248.213 270.442 258.151 260.504 270.41 260.504H323.561C335.821 260.504 345.759 270.442 345.759 282.701V282.701H248.213V282.701Z" fill="#3423E9"/>
<path d="M272.401 274.866C271.998 274.866 271.661 274.792 271.388 274.646C271.118 274.496 270.914 274.3 270.774 274.057C270.638 273.814 270.569 273.548 270.569 273.258C270.569 272.976 270.623 272.731 270.729 272.525C270.839 272.315 270.992 272.142 271.188 272.006C271.385 271.866 271.619 271.756 271.892 271.676C272.148 271.606 272.434 271.547 272.75 271.497C273.07 271.443 273.393 271.395 273.719 271.352C274.045 271.309 274.349 271.267 274.632 271.227L274.313 271.412C274.323 270.933 274.226 270.578 274.023 270.349C273.824 270.119 273.478 270.004 272.985 270.004C272.659 270.004 272.373 270.079 272.127 270.229C271.884 270.375 271.712 270.615 271.612 270.948L270.769 270.693C270.899 270.221 271.15 269.85 271.523 269.58C271.895 269.31 272.386 269.176 272.995 269.176C273.484 269.176 273.903 269.264 274.253 269.44C274.606 269.613 274.858 269.876 275.011 270.229C275.088 270.395 275.136 270.577 275.156 270.773C275.176 270.966 275.186 271.169 275.186 271.382V274.716H274.398V273.423L274.582 273.543C274.379 273.979 274.095 274.308 273.729 274.531C273.366 274.754 272.924 274.866 272.401 274.866ZM272.536 274.122C272.855 274.122 273.131 274.065 273.364 273.952C273.601 273.836 273.79 273.684 273.933 273.498C274.076 273.308 274.17 273.102 274.213 272.879C274.263 272.713 274.289 272.528 274.293 272.325C274.299 272.119 274.303 271.961 274.303 271.851L274.612 271.986C274.323 272.026 274.038 272.064 273.759 272.101C273.479 272.137 273.215 272.177 272.965 272.22C272.716 272.26 272.491 272.309 272.291 272.365C272.145 272.412 272.007 272.472 271.877 272.545C271.751 272.618 271.647 272.713 271.568 272.829C271.491 272.942 271.453 273.084 271.453 273.254C271.453 273.4 271.489 273.54 271.563 273.673C271.639 273.806 271.756 273.914 271.912 273.997C272.072 274.08 272.28 274.122 272.536 274.122Z" fill="white"/>
<path d="M276.479 274.716V269.325H277.367V271.596H280.202V269.325H281.091V274.716H280.202V272.44H277.367V274.716H276.479Z" fill="white"/>
<path d="M282.489 274.716V269.325H286.232V270.169H283.377V274.716H282.489Z" fill="white"/>
<path d="M286.581 274.716V273.952C286.781 273.989 286.932 273.982 287.035 273.932C287.142 273.879 287.22 273.788 287.27 273.658C287.323 273.525 287.367 273.358 287.4 273.159C287.456 272.843 287.505 272.49 287.545 272.101C287.588 271.711 287.626 271.285 287.659 270.823C287.696 270.357 287.729 269.858 287.759 269.325H291.527V274.716H290.639V270.169H288.568C288.548 270.475 288.523 270.79 288.493 271.112C288.466 271.435 288.438 271.75 288.408 272.056C288.378 272.358 288.345 272.641 288.308 272.904C288.275 273.164 288.238 273.388 288.198 273.578C288.135 273.904 288.047 274.165 287.934 274.362C287.821 274.555 287.658 274.679 287.445 274.736C287.232 274.796 286.944 274.789 286.581 274.716Z" fill="white"/>
<path d="M297.342 269.325V274.716H296.483V270.743L293.658 274.716H292.924V269.325H293.783V273.244L296.613 269.325H297.342Z" fill="white"/>
<path d="M301.06 268.697C300.811 268.697 300.583 268.635 300.377 268.512C300.17 268.389 300.005 268.226 299.882 268.023C299.759 267.816 299.698 267.587 299.698 267.334H300.416C300.416 267.51 300.48 267.662 300.606 267.788C300.733 267.915 300.884 267.978 301.06 267.978C301.24 267.978 301.391 267.915 301.514 267.788C301.641 267.662 301.704 267.51 301.704 267.334H302.423C302.423 267.587 302.361 267.816 302.238 268.023C302.118 268.226 301.954 268.389 301.744 268.512C301.538 268.635 301.31 268.697 301.06 268.697ZM303.152 269.325V274.716H302.293V270.743L299.468 274.716H298.734V269.325H299.593V273.244L302.423 269.325H303.152Z" fill="white"/>
<path d="M306.82 274.866C306.275 274.866 305.811 274.744 305.428 274.501C305.049 274.255 304.759 273.917 304.559 273.488C304.36 273.059 304.257 272.57 304.25 272.021C304.257 271.458 304.361 270.964 304.564 270.538C304.771 270.109 305.065 269.775 305.448 269.535C305.83 269.296 306.291 269.176 306.83 269.176C307.399 269.176 307.889 269.315 308.298 269.595C308.71 269.874 308.987 270.257 309.126 270.743L308.248 271.007C308.135 270.695 307.95 270.452 307.694 270.279C307.441 270.106 307.15 270.019 306.82 270.019C306.451 270.019 306.147 270.106 305.907 270.279C305.667 270.448 305.489 270.685 305.373 270.988C305.257 271.287 305.197 271.631 305.193 272.021C305.2 272.62 305.338 273.104 305.608 273.473C305.88 273.839 306.285 274.022 306.82 274.022C307.173 274.022 307.466 273.942 307.699 273.783C307.932 273.62 308.108 273.385 308.228 273.079L309.126 273.313C308.94 273.816 308.649 274.2 308.253 274.466C307.857 274.733 307.379 274.866 306.82 274.866Z" fill="white"/>
<path d="M310.14 274.716L310.145 269.325H311.043V271.921L313.304 269.325H314.457L312.077 272.021L314.737 274.716H313.494L311.043 272.121V274.716H310.14Z" fill="white"/>
<path d="M319.646 269.325V274.716H318.787V270.743L315.962 274.716H315.229V269.325H316.087V273.244L318.917 269.325H319.646Z" fill="white"/>
<path d="M323.365 268.697C323.115 268.697 322.887 268.635 322.681 268.512C322.474 268.389 322.31 268.226 322.187 268.023C322.064 267.816 322.002 267.587 322.002 267.334H322.721C322.721 267.51 322.784 267.662 322.91 267.788C323.037 267.915 323.188 267.978 323.365 267.978C323.544 267.978 323.696 267.915 323.819 267.788C323.945 267.662 324.008 267.51 324.008 267.334H324.727C324.727 267.587 324.666 267.816 324.542 268.023C324.423 268.226 324.258 268.389 324.048 268.512C323.842 268.635 323.614 268.697 323.365 268.697ZM325.456 269.325V274.716H324.597V270.743L321.772 274.716H321.039V269.325H321.897V273.244L324.727 269.325H325.456Z" fill="white"/>
<path d="M248.829 197.99C248.829 189.057 256.071 181.815 265.004 181.815H328.342C337.275 181.815 344.517 189.057 344.517 197.99V197.99C344.517 206.923 337.275 214.165 328.342 214.165H265.004C256.071 214.165 248.829 206.923 248.829 197.99V197.99Z" fill="#3423E9"/>
<path d="M328.608 181.88C328.608 199.522 314.306 213.823 296.664 213.823C279.022 213.823 264.721 199.522 264.721 181.88C264.721 164.238 279.022 149.937 296.664 149.937C314.306 149.937 328.608 164.238 328.608 181.88Z" fill="#3423E9"/>
<path d="M271.698 225.938C265.088 225.938 259.73 220.58 259.73 213.971V213.971C259.73 207.361 265.088 202.003 271.698 202.003V202.003C278.307 202.003 283.665 207.361 283.665 213.971V213.971C283.665 220.58 278.307 225.938 271.698 225.938V225.938Z" fill="#FFD214"/>
<path d="M320.955 225.938C314.345 225.938 308.987 220.58 308.987 213.971V213.971C308.987 207.361 314.345 202.003 320.955 202.003V202.003C327.564 202.003 332.922 207.361 332.922 213.971V213.971C332.922 220.58 327.564 225.938 320.955 225.938V225.938Z" fill="#FFD214"/>
<path fill-rule="evenodd" clip-rule="evenodd" d="M320.963 181.978C320.963 181.969 320.963 181.959 320.963 181.95C320.963 168.497 310.057 157.592 296.604 157.592C283.152 157.592 272.246 168.497 272.246 181.95C272.246 181.959 272.246 181.969 272.246 181.978H320.963Z" fill="white"/>
<path d="M292.672 153.93H300.658V193.859H292.672V153.93Z" fill="#3423E9"/>
<path d="M286.877 243.116C285.622 243.116 284.554 242.837 283.674 242.278C282.802 241.712 282.136 240.935 281.677 239.948C281.217 238.96 280.98 237.835 280.965 236.573C280.98 235.279 281.221 234.143 281.688 233.163C282.163 232.176 282.84 231.407 283.72 230.856C284.6 230.305 285.66 230.029 286.9 230.029C288.209 230.029 289.334 230.351 290.275 230.994C291.224 231.636 291.859 232.517 292.18 233.634L290.16 234.242C289.9 233.523 289.475 232.964 288.886 232.566C288.304 232.168 287.635 231.969 286.877 231.969C286.027 231.969 285.327 232.168 284.776 232.566C284.225 232.957 283.816 233.5 283.548 234.196C283.28 234.885 283.142 235.677 283.135 236.573C283.15 237.95 283.467 239.064 284.087 239.913C284.715 240.755 285.645 241.176 286.877 241.176C287.688 241.176 288.362 240.992 288.897 240.625C289.433 240.25 289.839 239.71 290.114 239.006L292.18 239.546C291.752 240.702 291.082 241.586 290.172 242.198C289.261 242.81 288.163 243.116 286.877 243.116Z" fill="black"/>
<path d="M297.936 243.116C297.01 243.116 296.233 242.948 295.605 242.611C294.985 242.267 294.515 241.815 294.193 241.256C293.879 240.698 293.723 240.085 293.723 239.42C293.723 238.769 293.845 238.207 294.09 237.732C294.342 237.25 294.694 236.852 295.146 236.538C295.598 236.217 296.137 235.964 296.765 235.781C297.354 235.62 298.012 235.482 298.739 235.367C299.474 235.245 300.216 235.134 300.966 235.034C301.716 234.935 302.416 234.839 303.067 234.747L302.332 235.172C302.355 234.07 302.133 233.255 301.666 232.727C301.207 232.199 300.411 231.935 299.279 231.935C298.529 231.935 297.871 232.107 297.304 232.452C296.746 232.788 296.351 233.339 296.122 234.105L294.182 233.519C294.48 232.432 295.058 231.579 295.915 230.959C296.772 230.339 297.901 230.029 299.302 230.029C300.427 230.029 301.391 230.232 302.195 230.638C303.006 231.036 303.587 231.64 303.939 232.452C304.115 232.834 304.226 233.251 304.272 233.703C304.318 234.147 304.341 234.614 304.341 235.103V242.772H302.527V239.799L302.952 240.074C302.485 241.077 301.831 241.834 300.989 242.347C300.155 242.86 299.137 243.116 297.936 243.116ZM298.246 241.406C298.98 241.406 299.615 241.276 300.151 241.015C300.695 240.747 301.131 240.399 301.46 239.971C301.789 239.534 302.003 239.06 302.103 238.547C302.218 238.165 302.279 237.74 302.286 237.273C302.302 236.798 302.309 236.435 302.309 236.182L303.021 236.492C302.355 236.584 301.701 236.672 301.058 236.756C300.415 236.841 299.807 236.932 299.233 237.032C298.659 237.124 298.142 237.235 297.683 237.365C297.346 237.472 297.029 237.61 296.73 237.778C296.439 237.946 296.202 238.165 296.018 238.432C295.842 238.693 295.754 239.018 295.754 239.408C295.754 239.745 295.839 240.066 296.007 240.372C296.183 240.679 296.451 240.927 296.811 241.119C297.178 241.31 297.656 241.406 298.246 241.406Z" fill="black"/>
<path d="M307.326 242.772V230.374H309.151V233.37L308.853 232.98C308.998 232.597 309.186 232.245 309.415 231.923C309.653 231.602 309.917 231.338 310.207 231.131C310.529 230.871 310.892 230.672 311.298 230.534C311.704 230.397 312.117 230.316 312.538 230.293C312.959 230.263 313.353 230.29 313.72 230.374V232.291C313.292 232.176 312.821 232.145 312.308 232.199C311.795 232.253 311.321 232.44 310.885 232.761C310.487 233.045 310.177 233.389 309.955 233.795C309.741 234.2 309.591 234.64 309.507 235.115C309.423 235.582 309.381 236.06 309.381 236.55V242.772H307.326Z" fill="black"/>
<path d="M349.104 144.946L354.669 137.588L349.225 130.392H352.082L356.071 135.728L360.019 130.392H362.876L357.432 137.588L363.011 144.946H360.14L356.071 139.448L351.974 144.946H349.104Z" fill="#C4C4C4"/>
<path d="M235.677 141.659C235.677 140.986 235.717 140.375 235.798 139.827C235.888 139.27 236.076 138.731 236.364 138.209C236.624 137.706 236.934 137.298 237.294 136.983C237.653 136.66 238.039 136.35 238.453 136.053C238.866 135.757 239.275 135.393 239.679 134.962C240.038 134.557 240.276 134.153 240.393 133.749C240.51 133.336 240.568 132.9 240.568 132.442C240.568 132.037 240.519 131.673 240.42 131.35C240.33 131.018 240.178 130.735 239.962 130.501C239.639 130.097 239.234 129.818 238.749 129.666C238.273 129.513 237.774 129.436 237.253 129.436C236.759 129.436 236.292 129.504 235.852 129.639C235.421 129.773 235.061 129.984 234.774 130.272C234.486 130.533 234.275 130.851 234.14 131.229C234.006 131.597 233.938 131.997 233.938 132.428H231.432C231.486 131.647 231.67 130.905 231.984 130.205C232.308 129.495 232.752 128.911 233.318 128.453C233.848 128.003 234.455 127.676 235.138 127.469C235.82 127.253 236.508 127.146 237.199 127.146C238.116 127.146 238.983 127.285 239.8 127.563C240.627 127.842 241.314 128.304 241.862 128.951C242.284 129.41 242.599 129.935 242.806 130.528C243.012 131.121 243.115 131.745 243.115 132.401C243.115 133.201 242.954 133.946 242.63 134.638C242.316 135.33 241.889 135.954 241.35 136.511C241.054 136.835 240.73 137.131 240.38 137.401C240.038 137.67 239.71 137.94 239.396 138.209C239.091 138.479 238.848 138.775 238.668 139.099C238.435 139.521 238.3 139.912 238.264 140.271C238.237 140.622 238.224 141.084 238.224 141.659H235.677ZM235.69 146.942V143.991H238.224V146.942H235.69Z" fill="#C4C4C4"/>
<defs>
<filter id="filter0_d_733_415" x="181.312" y="86" width="232.701" height="232.701" filterUnits="userSpaceOnUse" color-interpolation-filters="sRGB">
<feFlood flood-opacity="0" result="BackgroundImageFix"/>
<feColorMatrix in="SourceAlpha" type="matrix" values="0 0 0 0 0 0 0 0 0 0 0 0 0 0 0 0 0 0 127 0" result="hardAlpha"/>
<feOffset dy="4"/>
<feGaussianBlur stdDeviation="16"/>
<feComposite in2="hardAlpha" operator="out"/>
<feColorMatrix type="matrix" values="0 0 0 0 0 0 0 0 0 0 0 0 0 0 0 0 0 0 0.12 0"/>
<feBlend mode="normal" in2="BackgroundImageFix" result="effect1_dropShadow_733_415"/>
<feBlend mode="normal" in="SourceGraphic" in2="effect1_dropShadow_733_415" result="shape"/>
</filter>
</defs>
</svg>
